<?xml version="1.0" encoding="utf-8"?>
<!-- Generator: Adobe Illustrator 27.1.1, SVG Export Plug-In . SVG Version: 6.00 Build 0)  -->
<svg version="1.1" id="Layer_1" xmlns="http://www.w3.org/2000/svg" xmlns:xlink="http://www.w3.org/1999/xlink" x="0px" y="0px"
	 viewBox="0 0 340 71" style="enable-background:new 0 0 340 71;" xml:space="preserve">
<style type="text/css">
	.st0{fill:#FFFFFF;}
</style>
<path class="st0" d="M44.12,71c-0.15-0.05-0.3-0.1-0.45-0.15c-1.34-0.35-2.7-0.63-3.93-1.31c-1.77-0.99-3.44-2.13-4.8-3.66
	c-0.07-0.07-0.1-0.17-0.19-0.33c-0.2,0.28-0.33,0.45-0.44,0.62c-0.7,1.11-1.4,2.22-2.09,3.34c-0.18,0.29-0.37,0.51-0.75,0.5
	c-1.3-0.02-2.61-0.04-4.01-0.05c0.14-0.25,0.21-0.39,0.29-0.53c1.35-2.22,2.7-4.44,4.08-6.64c0.3-0.47,0.24-0.82-0.04-1.27
	c-4.53-7.22-9.04-14.45-13.56-21.68c-2.38-3.8-4.74-7.61-7.14-11.4c-0.36-0.56-0.42-1-0.12-1.61c0.74-1.52,1.38-3.09,2.07-4.63
	c0.31-0.69,0.68-1.35,0.99-2.04c0.47-1.03,0.91-2.07,1.38-3.1c0.25-0.56,0.55-1.1,0.81-1.65c0.23-0.48,0.45-0.97,0.66-1.43
	c-1.96-3.4-3.92-6.78-5.88-10.19c-0.3,0-0.62,0-1.03,0c0,20.84,0,41.66,0,62.51c-3.37,0-6.65,0-9.98,0c0-21.82,0-43.6,0-65.44
	c0.3-0.01,0.56-0.04,0.82-0.04C6.3,0.81,11.78,0.8,17.26,0.8c1.56,0,3.12,0.01,4.68-0.02c0.45-0.01,0.72,0.14,0.96,0.52
	c0.69,1.09,1.43,2.15,2.13,3.22c0.23,0.35,0.44,0.71,0.62,1.08c0.15,0.31,0.34,0.32,0.59,0.14c0.08-0.06,0.16-0.12,0.24-0.18
	c2.27-1.67,4.75-2.94,7.42-3.84c0.69-0.23,1.42-0.38,2.14-0.49c1.07-0.16,2.15-0.27,3.23-0.35c1.18-0.09,2.34,0.14,3.5,0.3
	c1.12,0.15,2.16,0.53,3.23,0.84c0.37,0.11,0.78,0.14,1.16,0.15c1.41,0.02,2.83,0.08,4.23-0.01c1.1-0.08,2.22-0.23,3.24-0.76
	c0.1-0.05,0.23-0.05,0.45-0.09c-0.09,0.23-0.12,0.38-0.2,0.51c-1.42,2.3-3.22,4.2-5.74,5.3c-1.21,0.53-2.47,0.95-3.81,0.95
	c-1.46-0.01-2.92-0.05-4.37-0.16c-0.67-0.05-1.32-0.29-1.98-0.45c-0.57-0.14-1.14-0.27-1.7-0.42c-0.96-0.25-1.92-0.52-2.88-0.77
	c-1.12-0.29-2.15,0.04-3.14,0.49c-1.46,0.66-2.8,1.53-4.12,2.58c5.12,7.87,10.23,15.73,15.38,23.67c0.23-0.31,0.4-0.52,0.54-0.75
	c4.31-7.06,8.62-14.13,12.93-21.19c2.06-3.38,4.13-6.75,6.18-10.13c0.23-0.39,0.49-0.54,0.94-0.54c3.74,0.04,7.49,0.05,11.23,0.07
	c0.12,0,0.24,0.02,0.41,0.03c0,21.95,0,43.87,0,65.83c-3.47,0-6.91,0-10.43,0c-0.08-10.02-0.16-20.03-0.07-30.1
	c-3.92,0-7.82,0-11.7,0c-3.94,6.49-7.88,12.99-11.82,19.49c0.01,0.05,0,0.1,0.03,0.14c2.01,3.32,4.31,6.42,7.12,9.11
	c1.35,1.29,2.86,2.37,4.54,3.19c0.42,0.21,0.89,0.33,1.43,0.53c-1.31,0.75-2.58,1.34-3.95,1.71c-0.74,0.2-1.47,0.4-2.21,0.6
	c-0.15,0-0.3,0-0.45,0c-0.89,0-1.79,0-2.68,0C44.42,71,44.27,71,44.12,71z M64.29,4.94C55.62,18.9,47.07,32.92,38.46,47.01
	c-0.71-1.1-1.33-2.07-1.96-3.05c-0.64-1-1.29-2-1.93-3c-0.63-0.98-1.25-1.96-1.9-2.93c-0.64-0.96-1.3-1.9-1.94-2.86
	c-0.63-0.96-1.24-1.93-1.85-2.9c-0.63-1-1.23-2.01-1.86-3c-0.62-0.98-1.26-1.96-1.89-2.94c-0.63-0.98-1.26-1.96-1.9-2.93
	c-0.65-1-1.29-2-1.94-2.99c-0.63-0.96-1.22-1.95-1.96-2.9c-0.16,0.14-0.27,0.21-0.34,0.3c-1.09,1.52-2.05,3.12-2.7,4.88
	c-0.35,0.94-0.65,1.9-0.84,2.88c-0.11,0.58-0.11,1.21,0,1.84c0.33,0,0.57,0,0.82,0c1.98,0,3.97,0.02,5.95-0.01
	c0.49-0.01,0.75,0.16,1.01,0.56c1.76,2.81,3.54,5.61,5.32,8.41c3.28,5.18,6.57,10.35,9.88,15.58c0.22-0.34,0.42-0.65,0.61-0.97
	c4.51-7.58,9.03-15.15,13.53-22.74c0.28-0.47,0.56-0.7,1.16-0.69c3.34,0.06,6.69,0.07,10.04,0.09c0.17,0,0.33-0.03,0.52-0.05
	C64.29,20.02,64.29,12.48,64.29,4.94z"/>
<path class="st0" d="M44.57,71"/>
<path class="st0" d="M86.91,10.33c0.25,0,0.4-0.01,0.55,0c4.29,0.23,8.58,0.06,12.86,0.01c1.49-0.02,2.98-0.02,4.46,0.1
	c1.67,0.13,3.33,0.46,4.86,1.16c0.67,0.3,1.3,0.74,1.86,1.22c1.53,1.32,2.51,2.95,3.03,4.94c0.51,1.96,0.65,3.9,0.41,5.89
	c-0.14,1.15-0.45,2.24-0.88,3.33c-0.74,1.87-1.82,3.47-3.23,4.88c-1.65,1.65-3.66,2.65-5.87,3.28c-0.84,0.24-1.69,0.48-2.55,0.58
	c-0.93,0.11-1.88,0.08-2.82,0.08c-1.21,0-2.43-0.06-3.64-0.06c-2.4,0-4.81,0.03-7.21,0.04c-0.17,0-0.34,0-0.5,0
	c-0.24-0.84-0.22-0.88,0.43-1.27c0.3-0.18,0.59-0.36,0.89-0.55c0.06-0.04,0.12-0.09,0.19-0.14c0.3-1.4,0.31-2.83,0.32-4.25
	c0.03-4.59,0.03-9.17,0-13.76c-0.01-1.03-0.18-2.06-0.25-3.09c-0.02-0.35-0.18-0.45-0.51-0.49c-0.63-0.07-1.24-0.21-1.87-0.28
	c-0.32-0.04-0.51-0.16-0.52-0.5C86.9,11.09,86.91,10.72,86.91,10.33z M95.43,12.49c0,0.85,0,1.57,0,2.28
	c-0.03,5.25-0.06,10.51-0.08,15.76c0,0.87,0.06,1.73,0.08,2.6c0.01,0.37,0.16,0.53,0.54,0.54c0.61,0.02,1.22,0.1,1.82,0.12
	c1.43,0.04,2.86-0.02,4.28-0.25c2.58-0.43,4.52-1.77,5.76-4.04c0.78-1.44,1.31-2.97,1.49-4.64c0.15-1.36,0.24-2.71,0.1-4.06
	c-0.19-1.82-0.65-3.57-1.73-5.1c-0.66-0.93-1.47-1.68-2.5-2.17c-1.5-0.7-3.11-1.02-4.75-1.09C98.8,12.36,97.17,12.46,95.43,12.49z"
	/>
<path class="st0" d="M209.81,35.75c-1.52,0-2.98-0.01-4.44,0c-0.79,0-1.59,0.04-2.38,0.05c-0.57,0-0.68-0.16-0.57-0.71
	c0.05-0.25,0-0.52,0.01-0.78c0.01-0.17,0.06-0.33,0.09-0.5c0.06-0.33,0.13-0.66,0.23-1.18c-0.46,0.33-0.78,0.53-1.07,0.76
	c-0.74,0.6-1.48,1.2-2.2,1.82c-0.86,0.75-1.86,1.04-2.99,0.98c-2.54-0.13-4.34-1.42-5.62-3.55c-1.03-1.71-1.15-3.6-1.06-5.53
	c0.05-1.09,0.27-2.15,0.59-3.18c0.25-0.8,0.7-1.52,1.35-2.07c1.46-1.25,3.04-2.37,4.78-3.17c1.29-0.59,2.7-0.68,4.11-0.29
	c0.66,0.18,1.33,0.3,2.04,0.46c0.01-0.19,0.03-0.38,0.03-0.57c0-1.36,0.01-2.73-0.01-4.09c-0.01-0.56-0.07-1.13-0.13-1.69
	c-0.04-0.38-0.29-0.56-0.65-0.59c-0.44-0.04-0.89-0.07-1.33-0.1c-0.24-0.02-0.49-0.03-0.78-0.04c0-0.44,0-0.85,0-1.29
	c0.66-0.11,1.32-0.22,1.97-0.32c1.5-0.24,2.96-0.62,4.38-1.15c0.23-0.08,0.47-0.17,0.71-0.19c0.46-0.05,0.63,0.11,0.63,0.59
	c0,0.5-0.05,0.99-0.05,1.49c-0.07,3.99-0.16,7.98-0.21,11.97c-0.03,3.12-0.01,6.25-0.02,9.37c0,0.12-0.01,0.25-0.02,0.37
	c-0.05,1.14,0.51,1.57,1.5,1.66c0.38,0.03,0.76,0.11,1.12,0.17C209.81,34.92,209.81,35.35,209.81,35.75z M202.74,26.34
	c-0.01,0-0.03,0-0.04,0c0-0.99-0.02-1.98,0.01-2.97c0.01-0.4-0.13-0.7-0.37-1.01c-0.81-1.01-1.86-1.62-3.11-1.84
	c-1.81-0.33-3.42,0.23-4.21,2.06c-0.34,0.78-0.47,1.58-0.49,2.41c-0.04,1.48-0.1,2.95,0.35,4.4c0.29,0.92,0.73,1.74,1.49,2.33
	c0.48,0.37,1.03,0.76,1.6,0.86c1.58,0.28,2.97-0.23,4.11-1.39c0.31-0.31,0.49-0.68,0.5-1.12C202.62,28.81,202.68,27.57,202.74,26.34
	z"/>
<path class="st0" d="M173.74,33.49c2.41,0,4.74-0.01,7.06,0.01c0.71,0.01,1.41-0.02,2.17-0.41c0.27-1.13,0.55-2.36,0.85-3.62
	c0.5,0,0.96,0,1.42,0c-0.15,2.05-0.3,4.06-0.46,6.16c-0.28,0.03-0.59,0.11-0.9,0.11c-2.23,0.01-4.46-0.01-6.69,0
	c-3.42,0.01-6.84,0.03-10.26,0.05c-0.19,0-0.39,0-0.57,0c-0.17-0.87-0.17-0.87,0.57-1.27c1.11-0.6,1.17-0.62,1.21-1.94
	c0.1-2.97,0.19-5.94,0.22-8.92c0.03-3.05-0.02-6.1-0.06-9.14c-0.01-0.54-0.1-1.08-0.16-1.62c-0.06-0.52-0.43-0.72-0.88-0.8
	c-0.65-0.12-1.3-0.22-2.01-0.33c0-0.44,0-0.9,0-1.4c0.18-0.01,0.37-0.04,0.56-0.03c4.96,0.23,9.91,0.06,14.87,0
	c1.24-0.01,2.48,0.05,3.71,0.07c0.12,0,0.24,0.03,0.45,0.06c-0.17,1.79-0.34,3.55-0.51,5.37c-0.44,0-0.88,0-1.37,0
	c-0.07-0.9-0.13-1.81-0.2-2.72c-0.56-0.28-1.12-0.35-1.69-0.46c-1.79-0.37-3.59-0.23-5.39-0.23c-0.64,0-1.28,0.08-1.98,0.12
	c-0.09,2.98-0.18,5.92-0.27,8.91c0.75,0.04,1.41,0.11,2.08,0.12c1.29,0.02,2.58,0.03,3.86,0.03c0.81,0,1.16-0.31,1.27-1.13
	c0.08-0.59,0.13-1.17,0.19-1.8c0.49,0,0.95,0,1.47,0c0,2.66,0,5.31,0,8.02c-0.24,0.01-0.48,0.03-0.72,0.04c-0.22,0.01-0.44,0-0.7,0
	c-0.13-0.96-0.26-1.87-0.38-2.75c-1.07-0.54-5.01-0.71-6.95-0.31C173.53,26.91,173.53,30.17,173.74,33.49z"/>
<path class="st0" d="M212.94,20.96c0-0.47,0-0.88,0-1.27c1.29-0.23,2.54-0.41,3.77-0.69c1.2-0.28,2.38-0.67,3.7-1.05
	c0,0.41,0.01,0.7,0,0.98c-0.11,2.77-0.23,5.54-0.32,8.32c-0.03,0.92-0.03,1.84,0.03,2.75c0.1,1.66,1.41,2.76,2.76,2.65
	c0.65-0.05,1.26-0.14,1.83-0.41c1.07-0.51,1.76-1.33,1.85-2.56c0.05-0.69,0.09-1.38,0.1-2.08c0.01-1.64,0-3.27,0-4.91
	c0-0.25,0-0.5-0.03-0.74c-0.07-0.58-0.27-0.74-0.86-0.78c-0.61-0.04-1.22-0.11-1.87-0.18c0-0.45,0-0.86,0-1.34
	c0.36-0.04,0.74-0.06,1.1-0.13c0.9-0.17,1.8-0.4,2.71-0.52c1.1-0.15,2.12-0.55,3.15-0.92c0.51-0.18,0.72,0.01,0.69,0.59
	c-0.04,0.84-0.14,1.68-0.15,2.52c-0.05,4.01-0.08,8.03-0.11,12.04c0,0.56,0.37,0.94,1,1.01c0.53,0.06,1.06,0.11,1.63,0.17
	c0,0.44,0,0.85,0,1.32c-2.39,0-4.78,0-7.21,0c-0.35-0.45-0.03-0.97-0.06-1.47c-0.03-0.49-0.01-0.98-0.01-1.56
	c-0.16,0.1-0.28,0.16-0.37,0.25c-0.84,0.77-1.68,1.54-2.51,2.32c-0.44,0.41-1,0.62-1.55,0.75c-1.32,0.32-2.68,0.25-3.9-0.33
	c-1.49-0.71-2.52-1.89-2.65-3.65c-0.04-0.64-0.07-1.29-0.07-1.93c0.01-2.18,0.05-4.36,0.05-6.54c0-0.59-0.07-1.18-0.13-1.76
	c-0.04-0.4-0.25-0.59-0.68-0.65C214.21,21.1,213.6,21.04,212.94,20.96z"/>
<path class="st0" d="M145.72,19.03c-0.11,1.56-0.22,3.08-0.33,4.63c-0.46,0-0.9,0-1.37,0c-0.07-0.59-0.14-1.14-0.19-1.71
	c-0.06-0.7-0.49-1.14-1.07-1.41c-1.14-0.54-2.34-0.74-3.6-0.43c-0.59,0.15-1.1,0.43-1.5,0.89c-0.62,0.72-0.81,2.24,0.47,2.94
	c0.79,0.43,1.63,0.71,2.54,0.81c0.48,0.05,0.95,0.16,1.42,0.28c0.75,0.19,1.51,0.35,2.24,0.61c1.04,0.37,1.79,1.06,2.17,2.16
	c0.3,0.87,0.5,1.7,0.29,2.64c-0.12,0.51-0.11,1.03-0.28,1.57c-0.33,1.03-0.97,1.76-1.78,2.4c-0.82,0.64-1.77,1.03-2.76,1.34
	c-1.66,0.53-3.34,0.54-5.03,0.28c-1.03-0.16-2.04-0.48-3.06-0.73c-0.39-0.1-0.57-0.36-0.55-0.75c0.08-1.5,0.16-3,0.25-4.55
	c0.49,0,0.97,0,1.49,0c0.05,0.65,0.12,1.29,0.15,1.93c0.03,0.6,0.35,1,0.78,1.38c1.51,1.33,3.27,1.32,5.05,0.86
	c1.12-0.29,1.77-1.22,1.82-2.36c0.03-0.71-0.19-1.4-0.94-1.9c-0.99-0.65-2.11-0.7-3.17-1.02c-1.02-0.3-2.08-0.44-3.05-0.93
	c-1.57-0.81-2.25-2.12-2.33-3.83c-0.16-3.21,2.3-5.32,4.78-5.63c0.87-0.11,1.75-0.23,2.63-0.29c1.22-0.09,2.39,0.21,3.56,0.49
	C144.81,18.79,145.25,18.91,145.72,19.03z"/>
<path class="st0" d="M161.08,32.88c0.25,0.35,0.37,0.59,0.09,0.88c-0.59,0.63-1.19,1.25-1.73,1.93c-0.28,0.36-0.68,0.46-1.02,0.47
	c-0.91,0.04-1.83-0.01-2.74-0.1c-0.79-0.08-1.49-0.45-2.09-0.98c-0.66-0.57-0.95-1.32-1.03-2.16c-0.05-0.57-0.06-1.14-0.05-1.71
	c0.05-2.8,0.11-5.6,0.16-8.4c0-0.22,0-0.44,0-0.72c-0.8,0-1.55,0-2.29,0c-0.22-0.86-0.22-0.86,0.45-1.3
	c0.48-0.31,0.94-0.64,1.43-0.93c0.32-0.19,0.43-0.42,0.41-0.79c-0.06-1.49-0.1-2.97-0.15-4.46c-0.02-0.61-0.01-0.6,0.57-0.82
	c1.25-0.49,2.5-0.99,3.74-1.49c0.44-0.18,0.73-0.03,0.76,0.44c0.02,0.27,0.01,0.54-0.01,0.82c-0.13,1.9-0.27,3.79-0.41,5.69
	c-0.01,0.09,0.02,0.19,0.04,0.35c1.64,0.28,3.26,0.09,4.96-0.06c0.1,0.9-0.4,1.66-0.43,2.46c-0.78,0-1.52,0-2.25,0
	c-0.74,0-1.48,0-2.26,0c-0.03,0.23-0.07,0.4-0.07,0.56c0.04,2.97,0.08,5.94,0.15,8.91c0.02,1.02,0.54,1.55,1.55,1.63
	c0.44,0.03,0.89-0.03,1.33-0.08C160.5,33,160.78,32.93,161.08,32.88z"/>
<path class="st0" d="M119.19,21.15c0-0.48,0-0.89,0-1.36c0.26-0.04,0.5-0.09,0.74-0.1c2.01-0.17,3.97-0.56,5.87-1.28
	c0.18-0.07,0.38-0.07,0.58-0.07c0.3,0,0.45,0.17,0.44,0.47c-0.01,0.25-0.04,0.49-0.05,0.74c-0.19,4.41-0.31,8.82-0.1,13.23
	c0.02,0.43,0.17,0.85,0.25,1.25c0.88,0.13,1.65,0.25,2.46,0.38c0,0.46,0,0.87,0,1.34c-3.38,0-6.76,0-10.18,0
	c-0.02-0.24-0.04-0.46-0.04-0.67c0-0.22,0.02-0.44,0.04-0.73c0.49-0.03,0.96-0.05,1.42-0.09c0.26-0.03,0.55-0.05,0.78-0.16
	c0.17-0.08,0.35-0.29,0.38-0.47c0.12-0.67,0.27-1.36,0.27-2.03c0-3.05-0.04-6.1-0.08-9.14c-0.01-0.96-0.17-1.1-1.12-1.2
	c-0.27-0.03-0.54-0.03-0.82-0.05C119.75,21.18,119.48,21.17,119.19,21.15z"/>
<path class="st0" d="M317.66,55.94c-0.31,0.13-0.51-0.01-0.66-0.34c-0.35-0.79-0.7-1.57-1.08-2.34c-0.98-2.04-1.97-4.07-2.96-6.1
	c-0.04-0.08-0.09-0.16-0.25-0.23c0,0.18,0,0.37,0,0.55c0.02,2.13,0.03,4.26,0.05,6.39c0.01,1.11,0.18,1.29,1.31,1.39
	c0,0.17,0,0.35,0,0.52c-1.24,0-2.45,0-3.66,0c-0.15-0.56-0.15-0.57,0.31-0.65c0.15-0.03,0.3-0.03,0.44-0.06
	c0.27-0.06,0.44-0.2,0.44-0.51c0.04-2.87,0.09-5.73,0.11-8.6c0.01-0.68-0.11-0.75-0.84-0.86c-0.55-0.09-0.55-0.09-0.52-0.65
	c0.18-0.01,0.37-0.03,0.56-0.03c0.92,0,1.83,0.01,2.75,0c0.67-0.01,0.68-0.02,0.95,0.58c0.48,1.05,0.94,2.11,1.44,3.15
	c0.69,1.44,1.41,2.86,2.19,4.42c0.71-1.44,1.37-2.78,2.01-4.12c0.63-1.33,1.23-2.67,1.86-4.03c1.23,0,2.49,0,3.74,0
	c0.17,0.55,0.16,0.64-0.28,0.65c-0.89,0.01-0.97,0.21-0.98,1.12c-0.03,2.63,0,5.25,0.01,7.88c0,0.1,0.02,0.2,0.03,0.3
	c0.08,0.63,0.09,0.64,0.7,0.74c0.1,0.01,0.2,0.02,0.3,0.03c0.37,0.04,0.43,0.26,0.29,0.63c-1.65,0-3.33,0-5.08,0
	c-0.01-0.15-0.02-0.35-0.03-0.56c0.4-0.05,0.74-0.1,1.15-0.15c0.07-0.37,0.2-0.72,0.2-1.07c0.02-2.28,0.02-4.56,0.03-6.84
	c0-0.07-0.03-0.14-0.07-0.38C320.6,49.88,319.15,52.86,317.66,55.94z"/>
<path class="st0" d="M204.82,55.58c0,1-0.03,1.93,0.01,2.87c0.03,0.76,0.22,0.9,1.02,0.95c0.07,0,0.14,0.01,0.27,0.02
	c-0.01,0.17-0.02,0.33-0.02,0.53c-1.5,0-2.98,0-4.5,0c-0.03-0.14-0.05-0.3-0.08-0.46c0.11-0.03,0.17-0.06,0.24-0.08
	c1-0.25,0.93-0.19,0.95-1.08c0.04-1.16,0.01-2.33,0.01-3.53c-0.33,0.05-0.53,0.36-0.78,0.57c-1.24,1.05-3.47,0.9-4.27-0.92
	c-0.67-1.52-0.5-3.03,0.47-4.38c0.56-0.79,1.33-1.39,2.2-1.85c0.64-0.34,1.28-0.48,1.96-0.11c0.12,0.07,0.27,0.09,0.43,0.14
	c0-0.88,0.03-1.72-0.01-2.55c-0.02-0.52-0.09-0.55-0.64-0.61c-0.17-0.02-0.36,0.01-0.51-0.06c-0.12-0.06-0.18-0.23-0.35-0.46
	c1.31-0.13,2.41-0.61,3.67-0.64c-0.04,1.75-0.08,3.42-0.12,5.15c0.43-0.06,0.63-0.36,0.87-0.58c0.74-0.67,1.55-0.76,2.47-0.43
	c1.5,0.54,2.14,1.32,2.12,2.89c-0.02,2.07-0.97,3.67-2.76,4.67C206.67,56.07,205.73,56.21,204.82,55.58z M202.79,51.72
	c0-0.49-0.03-0.99,0.01-1.48c0.04-0.5-0.21-0.82-0.62-1c-0.93-0.41-1.87-0.24-2.4,0.68c-0.48,0.84-0.49,1.72-0.39,2.64
	c0.09,0.8,0.49,1.38,1.19,1.74c0.22,0.12,0.51,0.18,0.76,0.17c0.93-0.06,1.45-0.64,1.45-1.56
	C202.79,52.51,202.79,52.12,202.79,51.72z M208.28,51.95c-0.1-0.47-0.14-0.93-0.29-1.33c-0.38-1.01-1.06-1.28-2.12-1.17
	c-0.5,0.05-1.06,0.63-1.07,1.06c-0.01,1.07-0.02,2.13,0,3.2c0.01,0.51,0.7,1.23,1.19,1.23c1.03,0,1.65-0.45,1.89-1.23
	C208.06,53.13,208.15,52.52,208.28,51.95z"/>
<path class="st0" d="M272.5,44.41c0.17,0.42,0.07,0.61-0.33,0.67c-0.33,0.05-0.65,0.16-1.01,0.25c-0.03,1.18-0.09,2.29-0.08,3.39
	c0,1.83,0.03,3.67,0.06,5.5c0.01,0.72,0.09,0.78,0.81,0.87c0.62,0.08,0.62,0.08,0.56,0.66c-1.72,0-3.44,0-5.2,0
	c-0.01-0.14-0.03-0.3-0.04-0.45c1.66-0.42,1.33-0.25,1.42-1.67c0.07-1.06,0.01-2.13,0.01-3.19c-0.49-0.15-4.1-0.18-5.06-0.04
	c0.01,1.54-0.04,3.08,0.17,4.63c0.37,0.03,0.64,0.06,0.9,0.08c0.4,0.03,0.52,0.22,0.34,0.65c-1.75,0-3.52,0-5.32,0
	c0-0.16,0-0.33,0-0.5c0.09-0.01,0.16-0.03,0.23-0.03c1.14-0.1,1.26-0.16,1.27-1.26c0.02-2.75-0.01-5.5-0.02-8.25
	c0-0.12-0.03-0.24-0.06-0.41c-0.31-0.06-0.61-0.15-0.92-0.19c-0.5-0.06-0.5-0.04-0.48-0.7c1.74,0,3.49,0,5.24,0
	c0.19,0.52,0.18,0.56-0.25,0.64c-0.17,0.03-0.35,0.03-0.51,0.08c-0.14,0.04-0.26,0.12-0.5,0.24c-0.04,1.22-0.08,2.5-0.12,3.89
	c1.73,0.11,3.39,0.09,5.14,0.03c-0.02-1.35,0.08-2.66-0.15-4c-0.42-0.09-0.82-0.17-1.28-0.27c0-0.18,0-0.4,0-0.63
	C269.04,44.41,270.75,44.41,272.5,44.41z"/>
<path class="st0" d="M296.61,44.4c1.63,0,3.22,0,4.8,0c0.32,0,0.53,0.08,0.48,0.48c-0.17,0.07-0.34,0.18-0.52,0.21
	c-0.76,0.15-0.82,0.07-0.85,1.01c-0.04,1.14-0.04,2.28-0.05,3.42c0,0.09,0.02,0.18,0.04,0.41c0.33-0.29,0.58-0.47,0.8-0.69
	c1.15-1.15,2.29-2.32,3.44-3.47c0.37-0.37,0.71-0.76,0.6-1.34c1.04,0,2.03,0,3.04,0c0.02,0.15,0.05,0.29,0.08,0.49
	c-0.13,0.03-0.24,0.07-0.35,0.09c-0.98,0.2-1.73,0.78-2.43,1.45c-0.91,0.87-1.84,1.72-2.78,2.59c0.09,0.15,0.15,0.26,0.23,0.35
	c1.48,1.73,2.97,3.46,4.46,5.18c0.24,0.28,0.5,0.53,0.92,0.57c0.39,0.03,0.38,0.3,0.28,0.64c-1.11,0-2.21,0-3.33,0
	c-1.37-1.59-2.77-3.22-4.18-4.85c-0.18-0.21-0.33-0.51-0.8-0.39c0,0.35-0.01,0.71,0,1.07c0.02,0.87,0.03,1.73,0.07,2.6
	c0.03,0.79,0.15,0.9,0.94,1.03c0.12,0.02,0.24,0.02,0.38,0.03c0.13,0.43-0.07,0.55-0.44,0.55c-0.87-0.01-1.73-0.03-2.6-0.04
	c-0.72-0.01-1.43,0-2.2,0c-0.02-0.11-0.04-0.28-0.06-0.45c0.09-0.03,0.16-0.07,0.23-0.08c1.05-0.1,1.28-0.26,1.29-1.28
	c0.03-2.67,0.02-5.35-0.01-8.02c-0.01-0.78-0.07-0.79-0.89-0.82C296.61,45.1,296.6,45.1,296.61,44.4z"/>
<path class="st0" d="M282.94,44.56c0.28-0.06,0.52-0.15,0.75-0.15c1.49-0.01,2.97-0.01,4.5-0.01c0.02,0.16,0.04,0.32,0.06,0.51
	c-0.28,0.08-0.54,0.14-0.79,0.22c-0.41,0.12-0.51,0.24-0.39,0.64c0.21,0.65,0.45,1.29,0.7,1.92c0.34,0.86,0.71,1.7,1.07,2.55
	c0.37,0.87,0.74,1.73,1.16,2.71c0.1-0.23,0.16-0.37,0.22-0.51c0.66-1.63,1.32-3.27,1.97-4.9c0.22-0.56,0.41-1.14,0.59-1.71
	c0.15-0.47,0.04-0.63-0.45-0.7c-0.24-0.04-0.49-0.06-0.78-0.09c-0.01-0.2-0.02-0.38-0.03-0.6c1.28,0,2.51,0,3.79,0
	c0.03,0.14,0.05,0.29,0.09,0.49c-0.92,0.12-1.32,0.7-1.63,1.48c-0.8,2.05-1.7,4.06-2.53,6.09c-0.61,1.5-1.15,3.04-1.8,4.53
	c-0.28,0.65-0.67,1.28-1.15,1.8c-0.76,0.83-2.02,0.96-3.06,0.4c0.08-0.5,0.17-1.03,0.28-1.66c0.27,0.19,0.43,0.3,0.59,0.4
	c0.67,0.41,1.4,0.33,1.84-0.32c0.33-0.48,0.53-1.04,0.75-1.59c0.05-0.13-0.04-0.34-0.1-0.49c-0.33-0.81-0.66-1.61-1.01-2.41
	c-0.49-1.14-1-2.27-1.49-3.41c-0.4-0.94-0.78-1.88-1.18-2.82c-0.15-0.34-0.33-0.67-0.48-1c-0.22-0.47-0.48-0.86-1.09-0.85
	C283.1,45.08,283.1,45.03,282.94,44.56z"/>
<path class="st0" d="M221.79,59.95c-0.01-0.15-0.03-0.32-0.04-0.47c0.4-0.1,0.77-0.19,1.13-0.27c0.26-1.41,0.2-2.76,0.21-4.11
	c0.01-1.66,0-3.32-0.02-4.98c-0.01-0.93-0.03-0.93-0.97-0.98c-0.1,0-0.19-0.02-0.33-0.03c0-0.18,0-0.34,0-0.46
	c1.12-0.24,2.23-0.48,3.37-0.73c0,0.4,0,0.77,0,1.17c0.42-0.03,0.62-0.35,0.88-0.55c1.03-0.8,2.48-0.91,3.55-0.21
	c0.22,0.14,0.4,0.36,0.55,0.59c0.57,0.9,1.05,1.82,0.62,2.93c-0.18,0.46-0.37,0.93-0.45,1.41c-0.08,0.44-0.37,0.7-0.66,0.95
	c-0.55,0.47-1.1,0.94-1.7,1.35c-0.85,0.59-1.78,0.56-2.74,0.16c0,1.02-0.01,2.03,0.01,3.04c0.01,0.38,0.34,0.58,0.84,0.56
	c0.53-0.01,0.55,0.02,0.44,0.62C224.93,59.95,223.38,59.95,221.79,59.95z M225.16,52.06c0,0.52-0.01,1.04,0,1.55
	c0,0.17,0.02,0.37,0.11,0.49c0.45,0.59,1.05,0.85,1.79,0.82c0.78-0.03,1.25-0.58,1.47-1.16c0.33-0.9,0.37-1.89,0.15-2.84
	c-0.1-0.44-0.24-0.9-0.66-1.19c-0.92-0.64-1.5-0.55-2.37-0.02c-0.33,0.2-0.55,0.43-0.51,0.87C225.2,51.07,225.16,51.57,225.16,52.06
	z"/>
<path class="st0" d="M334.83,55.8c0-0.21,0-0.4,0-0.61c0.37-0.05,0.71-0.1,1.13-0.15c0.09-1-0.59-1.76-0.77-2.66
	c-1.46,0-2.89,0-4.34,0c-0.2,0.66-0.39,1.29-0.57,1.92c-0.17,0.62-0.1,0.72,0.54,0.79c0.1,0.01,0.2,0.02,0.3,0.03
	c0.37,0.04,0.44,0.25,0.3,0.62c-1.19,0-2.39,0-3.6,0c-0.18-0.5-0.18-0.55,0.27-0.61c0.46-0.06,0.72-0.29,0.88-0.68
	c0.46-1.1,0.92-2.2,1.37-3.3c0.39-0.94,0.76-1.87,1.15-2.81c0.45-1.1,0.9-2.19,1.35-3.29c0.11-0.27,0.22-0.53,0.32-0.8
	c0.41,0,0.78,0,1.2,0c0.43,1.01,0.87,2.03,1.3,3.06c0.41,0.98,0.82,1.96,1.22,2.95c0.31,0.76,0.58,1.54,0.91,2.29
	c0.32,0.74,0.69,1.45,1.04,2.17c0.15,0.31,0.45,0.35,0.75,0.39c0.24,0.03,0.46,0.13,0.41,0.41c-0.04,0.22-0.23,0.28-0.46,0.28
	C337.98,55.8,336.42,55.8,334.83,55.8z M333.1,47.31c-0.05-0.01-0.1-0.02-0.14-0.03c-0.49,1.32-1.14,2.58-1.55,4.02
	c1.15,0.08,2.22,0.08,3.35-0.01c-0.3-0.75-0.56-1.4-0.83-2.05C333.66,48.6,333.38,47.96,333.1,47.31z"/>
<path class="st0" d="M239.65,55.31c1.4-0.37,1.17-0.36,1.2-1.47c0.03-1.3,0.01-2.61-0.05-3.94c-1.03,1.92-1.83,3.94-2.79,5.9
	c-0.39,0.13-0.53-0.16-0.65-0.42c-0.26-0.55-0.5-1.11-0.75-1.66c-0.46-1.03-0.94-2.05-1.4-3.08c-0.11-0.25-0.2-0.52-0.43-0.75
	c0,0.86,0,1.72,0,2.58c0,0.62,0.01,1.24,0.03,1.86c0.02,0.67,0.18,0.83,0.87,0.92c0.09,0.01,0.19,0.02,0.32,0.04
	c-0.01,0.18-0.02,0.34-0.03,0.52c-1.07,0-2.11,0-3.18,0c-0.02-0.15-0.04-0.32-0.05-0.48c1.19-0.23,1.21-0.23,1.22-1.4
	c0.02-1.44,0-2.87-0.01-4.31c0-0.22-0.03-0.44-0.06-0.73c-0.33-0.08-0.66-0.15-1.03-0.24c0-0.16,0-0.34,0-0.56c1.17,0,2.31,0,3.52,0
	c0.69,1.51,1.41,3.07,2.19,4.78c0.78-1.71,1.48-3.25,2.17-4.78c1.12,0,2.18,0,3.23,0c0.18,0.66,0.13,0.71-0.83,0.81
	c-0.26,0.67-0.32,4.51-0.09,6.16c0.3,0.08,0.62,0.16,0.98,0.25c-0.01,0.15-0.02,0.32-0.03,0.47c-0.08,0.02-0.12,0.05-0.17,0.05
	c-1.24,0-2.48-0.01-3.71,0C239.83,55.81,239.53,55.81,239.65,55.31z"/>
<path class="st0" d="M132.76,52.03c0,0.83-0.01,1.6,0,2.36c0.01,0.55,0.18,0.73,0.72,0.83c0.14,0.03,0.29,0.02,0.44,0.03
	c0.1,0.44-0.1,0.55-0.47,0.55c-1.34-0.01-2.67,0-4.04,0c-0.02-0.18-0.04-0.34-0.06-0.52c0.1-0.02,0.16-0.05,0.23-0.06
	c0.94-0.16,0.99-0.19,1.03-1.09c0.07-1.75,0.1-3.51-0.11-5.31c-0.32-0.06-0.63-0.12-0.98-0.2c0-0.17,0-0.35,0-0.56
	c1.47,0,2.92,0,4.37,0c0.1,0.7,0.1,0.7-1.08,0.81c-0.11,0.75-0.04,1.53-0.06,2.35c1.15,0,2.23,0,3.35,0c0-0.8,0-1.55,0-2.36
	c-0.4-0.08-0.76-0.16-1.18-0.24c-0.01-0.13-0.03-0.31-0.06-0.54c1.5,0,2.94,0,4.43,0c0,0.18,0,0.36,0,0.57
	c-0.31,0.08-0.62,0.16-0.97,0.25c-0.01,0.18-0.04,0.4-0.04,0.61c0,1.59-0.01,3.17,0,4.76c0.01,0.71,0.02,0.73,0.72,0.85
	c0.39,0.07,0.52,0.23,0.34,0.64c-1.44,0-2.88,0-4.35,0c-0.15-0.33-0.14-0.55,0.29-0.63c0.82-0.17,0.83-0.18,0.85-0.98
	c0.02-0.69,0-1.37,0-2.12C135,52.03,133.93,52.03,132.76,52.03z"/>
<path class="st0" d="M149.78,48.05c0.01,0.21,0.02,0.37,0.03,0.51c-0.07,0.05-0.11,0.1-0.15,0.1c-0.95,0.12-0.97,0.05-0.98,1.08
	c-0.02,1.51-0.01,3.02,0.01,4.53c0.01,0.7,0.02,0.71,0.73,0.84c0.41,0.07,0.5,0.25,0.33,0.65c-1.44,0-2.89,0-4.36,0
	c-0.12-0.34-0.12-0.58,0.31-0.64c0.24-0.03,0.48-0.09,0.8-0.16c0-0.86,0-1.69,0-2.54c-0.69-0.17-0.69-0.18-1.12,0.4
	c-0.62,0.83-1.25,1.66-1.86,2.5c-0.26,0.36-0.56,0.5-1,0.47c-0.59-0.04-1.19-0.01-1.78-0.01c-0.14-0.53-0.14-0.53,0.31-0.73
	c0.11-0.05,0.23-0.1,0.3-0.18c0.79-0.98,1.56-1.96,2.34-2.95c-0.41-0.14-0.73-0.24-1.03-0.37c-0.63-0.27-0.95-0.75-0.96-1.45
	c-0.01-0.72,0.29-1.27,0.91-1.58c0.45-0.23,0.95-0.36,1.45-0.47c0.36-0.07,0.74-0.03,1.11-0.03c1.34,0,2.67,0.01,4.01,0.01
	C149.36,48.05,149.55,48.05,149.78,48.05z M146.57,49.04c-0.64-0.11-1.1-0.14-1.59-0.07c-0.66,0.09-1.18,0.6-1.2,1.25
	c-0.01,0.47,0.65,1.25,1.14,1.28c0.53,0.04,1.06,0.01,1.64,0.01c0-0.29,0-0.49,0-0.68C146.57,50.23,146.57,49.64,146.57,49.04z"/>
<path class="st0" d="M162.94,48.93c-1.05,0-2.09,0-3.18,0c-0.02,0.19-0.06,0.38-0.07,0.56c-0.01,1.59-0.01,3.17-0.01,4.76
	c0,0.74,0.16,0.88,0.89,0.97c0.09,0.01,0.19,0.03,0.3,0.04c0.07,0.37-0.07,0.54-0.42,0.54c-1.36,0-2.72,0-4.11,0
	c-0.02-0.19-0.03-0.35-0.05-0.55c0.15-0.01,0.27-0.01,0.38-0.03c0.76-0.17,0.85-0.22,0.86-1.02c0.02-1.75,0.01-3.51,0.01-5.32
	c-0.41-0.09-0.73-0.17-1.1-0.25c-0.01-0.15-0.02-0.31-0.04-0.53c3.31,0,6.59,0,9.87,0c0.11,0.68,0.09,0.71-0.49,0.74
	c-0.17,0.01-0.34,0-0.58,0c0,1.44,0,2.82,0,4.21c0,0.45,0,0.89,0.02,1.34c0.03,0.63,0.04,0.63,0.67,0.75
	c0.47,0.09,0.47,0.09,0.38,0.65c-1.42,0-2.85,0-4.28,0c-0.19-0.52-0.19-0.54,0.26-0.64c0.81-0.17,0.83-0.17,0.85-1
	C163.11,52.41,163.2,50.68,162.94,48.93z"/>
<path class="st0" d="M109.7,51.59c0.53,0.14,0.95,0.24,1.37,0.37c1.13,0.34,1.54,1.57,0.84,2.54c-0.5,0.7-1.24,1.04-2.06,1.18
	c-0.53,0.09-1.08,0.14-1.62,0.14c-1.14,0.02-2.28,0-3.41-0.01c-0.09,0-0.18-0.04-0.25-0.05c-0.13-0.34,0.12-0.42,0.3-0.54
	c0.25-0.16,0.38-0.37,0.38-0.67c-0.01-1.81-0.01-3.61-0.02-5.42c0-0.07-0.05-0.14-0.07-0.21c-0.33-0.09-0.66-0.17-1.02-0.27
	c-0.01-0.17-0.03-0.33-0.04-0.5c0.09-0.04,0.15-0.09,0.22-0.09c1.68-0.01,3.37-0.05,5.05-0.01c0.59,0.02,1.21,0.18,1.77,0.4
	c0.88,0.33,1.1,1.55,0.39,2.22c-0.31,0.3-0.74,0.47-1.13,0.68C110.2,51.44,109.99,51.49,109.7,51.59z M107.39,54.9
	c0.73,0.17,1.41,0.17,2.03-0.21c0.83-0.52,0.85-1.85,0.01-2.29c-0.63-0.33-1.32-0.51-2.04-0.24
	C107.39,53.08,107.39,53.98,107.39,54.9z M107.38,51.31c0.57,0.09,1.08,0.09,1.57-0.11c0.53-0.22,0.81-0.72,0.75-1.31
	c-0.06-0.54-0.36-0.88-0.94-0.99c-0.45-0.08-0.92-0.14-1.38,0.13C107.38,49.77,107.38,50.5,107.38,51.31z"/>
<path class="st0" d="M86.13,51.75c0.1-0.57,0.12-1.18,0.33-1.72c0.37-0.97,1.12-1.63,2.11-1.93c1.37-0.42,2.73-0.28,4.03,0.26
	c0.78,0.32,1.22,1.02,1.35,1.82c0.13,0.74,0.22,1.52,0.14,2.26c-0.2,1.99-1.31,3.26-3.29,3.47c-0.77,0.08-1.61,0.07-2.35-0.13
	c-0.84-0.23-1.47-0.87-1.85-1.7C86.26,53.34,86.17,52.56,86.13,51.75z M91.97,52.16c-0.13-0.72-0.26-1.44-0.38-2.16
	c-0.12-0.7-0.45-1.12-1.24-1.2c-0.88-0.09-1.58,0.31-1.75,1.17c-0.24,1.26-0.17,2.5,0.1,3.74c0.09,0.41,0.28,0.73,0.54,1.02
	c0.68,0.76,1.97,0.49,2.35-0.46C91.87,53.59,91.88,52.89,91.97,52.16z"/>
<path class="st0" d="M215.73,56.03c-1.43-0.04-2.53-0.61-3.19-1.89c-0.42-0.81-0.48-1.7-0.42-2.59c0.03-0.49,0.1-1,0.26-1.46
	c0.45-1.29,1.47-1.94,2.77-2.14c1.13-0.18,2.23-0.09,3.31,0.4c0.67,0.31,1.09,0.78,1.31,1.42c0.53,1.48,0.44,2.97-0.26,4.38
	c-0.46,0.93-1.28,1.48-2.32,1.66C216.7,55.9,216.22,55.96,215.73,56.03z M217.9,52.01c-0.15-0.78-0.25-1.6-0.48-2.37
	c-0.2-0.68-0.75-0.98-1.5-0.94c-0.62,0.03-1.06,0.37-1.29,0.96c-0.08,0.21-0.14,0.42-0.17,0.64c-0.15,1.11-0.11,2.22,0.15,3.32
	c0.07,0.28,0.16,0.6,0.34,0.81c0.23,0.27,0.53,0.54,0.86,0.65c0.78,0.27,1.54-0.11,1.76-0.91C217.75,53.48,217.79,52.76,217.9,52.01
	z"/>
<path class="st0" d="M186.6,55.28c0,0.17,0,0.31,0,0.49c-1.03,0-2.03,0-3.09,0c0-0.34,0-0.67,0-1.14c-0.43,0.32-0.78,0.54-1.09,0.81
	c-0.56,0.49-1.24,0.63-1.93,0.51c-0.56-0.1-0.94-0.51-1.13-1.06c-0.22-0.65-0.2-1.32,0.02-1.97c0.14-0.42,0.43-0.74,0.83-0.9
	c0.56-0.23,1.13-0.43,1.71-0.61c0.51-0.16,1.03-0.26,1.62-0.4c-0.09-0.43-0.11-0.86-0.27-1.21c-0.25-0.55-0.82-0.68-1.36-0.72
	c-0.47-0.04-0.93,0.01-1.16,0.57c-0.09,0.22-0.32,0.39-0.51,0.61c-0.44-0.78-0.36-1.2,0.22-1.56c0.81-0.5,1.64-0.93,2.63-0.8
	c0.48,0.06,0.97,0.14,1.42,0.32c0.68,0.27,1.01,0.86,1.07,1.57c0.04,0.52,0.02,1.04,0.02,1.56c0,0.94-0.03,1.88-0.02,2.82
	c0.01,0.94,0.02,0.7,0.75,1.06C186.41,55.26,186.51,55.26,186.6,55.28z M183.55,51.83c-0.73,0.01-1.35,0.22-1.87,0.63
	c-0.45,0.35-0.54,1.07-0.26,1.56c0.3,0.53,0.52,0.59,1.31,0.32c0.07-0.02,0.15-0.03,0.21-0.07c0.37-0.22,0.68-0.47,0.63-0.99
	C183.51,52.81,183.55,52.34,183.55,51.83z"/>
<path class="st0" d="M253.26,55.31c0.06,0.4-0.14,0.5-0.47,0.5c-0.84-0.01-1.68,0-2.61,0c0-0.35,0-0.7,0-1.19
	c-0.48,0.36-0.84,0.6-1.17,0.89c-0.55,0.47-1.21,0.57-1.87,0.46c-0.56-0.1-0.93-0.53-1.12-1.07c-0.24-0.68-0.2-1.39,0.02-2.04
	c0.11-0.33,0.49-0.62,0.82-0.8c0.49-0.26,1.03-0.42,1.56-0.58c0.56-0.17,1.13-0.29,1.78-0.45c-0.1-0.44-0.13-0.88-0.3-1.26
	c-0.24-0.52-0.8-0.63-1.31-0.68c-0.5-0.04-0.98,0.02-1.21,0.61c-0.08,0.2-0.3,0.35-0.47,0.54c-0.46-0.69-0.38-1.18,0.19-1.53
	c0.83-0.52,1.68-0.95,2.7-0.81c0.46,0.06,0.93,0.14,1.35,0.31c0.52,0.21,0.85,0.6,0.98,1.2c0.22,0.98,0.09,1.96,0.11,2.94
	c0.01,0.64,0.03,1.29-0.01,1.93c-0.03,0.51,0.18,0.78,0.65,0.91C252.99,55.22,253.13,55.26,253.26,55.31z M250.19,51.74
	c-0.45,0.14-0.82,0.22-1.17,0.36c-0.29,0.12-0.59,0.26-0.81,0.48c-0.38,0.38-0.4,1.07-0.1,1.51c0.3,0.46,0.45,0.49,1.21,0.24
	c0.2-0.07,0.42-0.16,0.58-0.3c0.14-0.12,0.28-0.31,0.29-0.48C250.21,52.99,250.19,52.43,250.19,51.74z"/>
<path class="st0" d="M278.59,50.97c-0.03-0.34,0.01-0.7-0.09-1.01c-0.25-0.77-1.6-1.21-2.28-0.77c-0.17,0.11-0.26,0.35-0.4,0.52
	c-0.16,0.18-0.34,0.34-0.53,0.51c-0.09-0.13-0.13-0.17-0.14-0.21c-0.19-0.76,0.12-1.2,0.82-1.57c1.19-0.64,2.33-0.76,3.59-0.24
	c0.62,0.26,0.99,0.66,1.09,1.28c0.09,0.56,0.09,1.13,0.09,1.7c0,0.99-0.04,1.98-0.05,2.97c0,0.64,0.07,0.89,0.73,0.96
	c0.45,0.05,0.39,0.34,0.26,0.65c-1,0-1.98,0-3.01,0c0-0.36,0-0.69,0-1.17c-0.53,0.4-0.95,0.73-1.38,1.04
	c-0.72,0.51-1.69,0.49-2.31-0.05c-0.11-0.1-0.21-0.21-0.29-0.33c-0.47-0.73-0.4-1.56-0.22-2.31c0.14-0.59,0.74-0.96,1.35-1.14
	C276.7,51.53,277.59,51.27,278.59,50.97z M278.69,51.8c-0.72,0.06-1.33,0.24-1.85,0.63c-0.44,0.33-0.57,0.99-0.34,1.48
	c0.17,0.37,0.5,0.59,0.86,0.57c0.57-0.04,1.29-0.48,1.33-0.89C278.72,53.01,278.69,52.42,278.69,51.8z"/>
<path class="st0" d="M174.13,48.91c-0.48,0-0.92,0-1.36,0c-0.46,0-0.93,0-1.44,0c-0.05,0.96-0.05,1.82-0.15,2.68
	c-0.1,0.89-0.17,1.78-0.48,2.63c-0.4,1.08-1.29,1.61-2.39,1.76c-0.31,0.04-0.32,0.01-0.66-0.36c0.06-0.48,0.11-0.91,0.17-1.4
	c0.13,0.02,0.31-0.02,0.39,0.06c0.34,0.33,0.76,0.22,1.13,0.18c0.18-0.02,0.4-0.28,0.48-0.48c0.17-0.39,0.23-0.83,0.36-1.23
	c0.38-1.22,0.17-2.45,0.28-3.77c-0.4-0.13-0.78-0.25-1.23-0.39c-0.01-0.1-0.02-0.28-0.04-0.47c2.77,0,5.48,0,8.26,0
	c0.01,0.14,0.02,0.32,0.03,0.49c-1.09,0.23-1.11,0.23-1.13,1.33c-0.02,1.68,0,3.36,0,5.07c0.39,0.1,0.72,0.19,1.07,0.28
	c-0.01,0.15-0.02,0.31-0.04,0.49c-1.43,0-2.84,0-4.25,0c-0.2-0.53-0.19-0.56,0.25-0.66c0.24-0.05,0.47-0.1,0.76-0.17
	C174.28,52.95,174.26,50.98,174.13,48.91z"/>
<path class="st0" d="M127.03,12.3c0,1.73-1.4,2.8-2.8,2.85c-1.67,0.05-2.85-1.53-2.84-2.81c0.01-1.61,1.36-2.9,2.81-2.85
	C125.75,9.56,127.06,10.67,127.03,12.3z"/>
<path class="st0" d="M102.4,48.28c-0.11,0.84-0.22,1.61-0.33,2.44c-0.17,0-0.37,0-0.61,0c-0.02-0.21-0.05-0.41-0.06-0.6
	c0-0.46-0.25-0.73-0.65-0.9c-1.29-0.56-2.44,0.15-2.48,1.54c-0.01,0.49,0.03,0.99,0.01,1.48c-0.03,0.88,0.97,2.29,1.89,2.45
	c0.47,0.09,0.97,0.05,1.46,0.04c0.23-0.01,0.46-0.08,0.7-0.13c0.01,0.7-0.36,0.99-0.95,1.14c-1.22,0.29-2.42,0.45-3.56-0.23
	c-0.98-0.59-1.62-1.41-1.64-2.61c-0.01-0.62-0.03-1.24,0.04-1.85c0.09-0.76,0.52-1.36,1.15-1.78c0.55-0.37,1.13-0.71,1.71-1.04
	C100.23,47.57,101.33,47.9,102.4,48.28z"/>
<path class="st0" d="M196.05,48.09c0,0.68,0,1.31,0,1.98c-0.19,0.09-0.35,0.17-0.56,0.27c-0.06-0.46-0.11-0.87-0.17-1.35
	c-0.78,0-1.51,0-2.29,0c-0.02,0.1-0.08,0.24-0.08,0.38c-0.01,1.48-0.01,2.97-0.02,4.45c0,0.12,0.01,0.25,0.02,0.37
	c0.07,0.84,0.17,0.94,1.02,1.03c0.07,0.01,0.13,0.03,0.23,0.06c0.07,0.42-0.15,0.52-0.5,0.52c-1.34-0.01-2.67,0-4.05,0
	c-0.01-0.19-0.02-0.37-0.03-0.53c0.08-0.05,0.12-0.09,0.16-0.1c1.06-0.13,1.09-0.13,1.11-1.22c0.03-1.53,0.01-3.07,0.01-4.6
	c0-0.12-0.04-0.24-0.06-0.38c-0.69,0-1.34-0.01-2,0c-0.34,0.01-0.45,0.22-0.43,0.55c0.04,0.56,0.03,0.56-0.59,0.75
	c0-0.72,0-1.43,0-2.2C190.54,48.09,193.29,48.09,196.05,48.09z"/>
<path class="st0" d="M121.87,55.78c-0.15-0.4-0.09-0.58,0.33-0.64c0.68-0.1,0.69-0.11,0.79-0.77c0.07-0.46,0.1-0.93,0.1-1.4
	c0.01-1.31,0-2.62,0-3.91c-0.73-0.22-1.85-0.17-2.45,0.09c-0.2,0.37,0.23,1.05-0.63,1.17c0-0.74,0-1.46,0-2.23c2.71,0,5.44,0,8.2,0
	c0,0.69,0,1.35,0,2c-0.2,0.09-0.34,0.16-0.51,0.24c-0.04-0.08-0.09-0.14-0.09-0.21c-0.08-1.18,0.08-1.12-1.25-1.18
	c-0.37-0.02-0.74,0-1.14,0c-0.04,0.16-0.1,0.29-0.1,0.43c-0.01,1.51-0.03,3.02-0.01,4.53c0.02,1.16,0.1,1.22,1.27,1.4
	c-0.01,0.16-0.03,0.32-0.04,0.48C124.84,55.78,123.38,55.78,121.87,55.78z"/>
<path class="st0" d="M114.34,49.12c0-0.22,0-0.37,0-0.51c1.11-0.23,2.2-0.45,3.38-0.7c0,0.29,0,0.5,0,0.72
	c-0.03,1.76-0.07,3.52-0.08,5.28c0,0.37,0.07,0.73,0.11,1.13c0.28,0.03,0.52,0.06,0.76,0.08c0.41,0.04,0.47,0.27,0.32,0.65
	c-1.53,0-3.05,0-4.61,0c0-0.17,0-0.34,0-0.5c0.1-0.01,0.17-0.03,0.24-0.03c0.98-0.09,1.08-0.16,1.09-1.09
	c0.02-1.41,0.01-2.82-0.01-4.24c-0.01-0.66-0.05-0.7-0.72-0.76C114.68,49.14,114.54,49.13,114.34,49.12z"/>
<path class="st0" d="M116.47,46.52c-0.68-0.03-1.2-0.63-1.15-1.33c0.04-0.7,0.63-1.22,1.34-1.17c0.71,0.05,1.23,0.64,1.18,1.35
	C117.78,46.06,117.2,46.55,116.47,46.52z"/>
</svg>
