<?xml version="1.0" encoding="UTF-8" standalone="no"?>
<!-- Created with Inkscape (http://www.inkscape.org/) -->

<svg
   version="1.1"
   id="svg419"
   width="793.70099"
   height="793.70099"
   viewBox="0 0 793.70099 793.70105"
   sodipodi:docname="Cl5.svg"
   inkscape:version="1.2.2 (b0a8486541, 2022-12-01)"
   inkscape:export-filename="Cl5.png"
   inkscape:export-xdpi="300"
   inkscape:export-ydpi="300"
   xmlns:inkscape="http://www.inkscape.org/namespaces/inkscape"
   xmlns:sodipodi="http://sodipodi.sourceforge.net/DTD/sodipodi-0.dtd"
   xmlns="http://www.w3.org/2000/svg"
   xmlns:svg="http://www.w3.org/2000/svg">
  <defs
     id="defs423">
    <linearGradient
       id="linearGradient5507"
       inkscape:swatch="solid">
      <stop
         style="stop-color:#b4cbc8;stop-opacity:1;"
         offset="0"
         id="stop5505" />
    </linearGradient>
    <clipPath
       clipPathUnits="userSpaceOnUse"
       id="clipPath447">
      <path
         d="M 253.701,201.089 H 388.375 V 388.318 H 253.701 Z"
         id="path445" />
    </clipPath>
    <clipPath
       clipPathUnits="userSpaceOnUse"
       id="clipPath601">
      <g
         id="g605">
        <path
           d="M 0,0.028 H 595.247 V 841.889 H 0 Z"
           clip-rule="evenodd"
           id="path603" />
      </g>
    </clipPath>
    <clipPath
       clipPathUnits="userSpaceOnUse"
       id="clipPath607">
      <g
         id="g611">
        <path
           d="M 0,0.028 H 595.247 V 841.889 H 0 Z"
           clip-rule="evenodd"
           id="path609" />
      </g>
    </clipPath>
    <clipPath
       clipPathUnits="userSpaceOnUse"
       id="clipPath613">
      <g
         id="g617">
        <path
           d="M 0,0.028 H 595.247 V 841.889 H 0 Z"
           clip-rule="evenodd"
           id="path615" />
      </g>
    </clipPath>
    <clipPath
       clipPathUnits="userSpaceOnUse"
       id="clipPath619">
      <g
         id="g623">
        <path
           d="M 0,0.028 H 595.247 V 841.889 H 0 Z"
           clip-rule="evenodd"
           id="path621" />
      </g>
    </clipPath>
    <clipPath
       clipPathUnits="userSpaceOnUse"
       id="clipPath625">
      <g
         id="g629">
        <path
           d="M 0,0.028 H 595.247 V 841.889 H 0 Z"
           clip-rule="evenodd"
           id="path627" />
      </g>
    </clipPath>
    <clipPath
       clipPathUnits="userSpaceOnUse"
       id="clipPath631">
      <g
         id="g635">
        <path
           d="M 0,0.028 H 595.247 V 841.889 H 0 Z"
           clip-rule="evenodd"
           id="path633" />
      </g>
    </clipPath>
    <clipPath
       clipPathUnits="userSpaceOnUse"
       id="clipPath637">
      <g
         id="g641">
        <path
           d="M 0,0.028 H 595.247 V 841.889 H 0 Z"
           clip-rule="evenodd"
           id="path639" />
      </g>
    </clipPath>
    <clipPath
       clipPathUnits="userSpaceOnUse"
       id="clipPath643">
      <g
         id="g647">
        <path
           d="M 0,0.028 H 595.247 V 841.889 H 0 Z"
           clip-rule="evenodd"
           id="path645" />
      </g>
    </clipPath>
    <clipPath
       clipPathUnits="userSpaceOnUse"
       id="clipPath649">
      <g
         id="g653">
        <path
           d="M 0,0.028 H 595.247 V 841.889 H 0 Z"
           clip-rule="evenodd"
           id="path651" />
      </g>
    </clipPath>
    <clipPath
       clipPathUnits="userSpaceOnUse"
       id="clipPath655">
      <g
         id="g659">
        <path
           d="M 0,0.028 H 595.247 V 841.889 H 0 Z"
           clip-rule="evenodd"
           id="path657" />
      </g>
    </clipPath>
    <clipPath
       clipPathUnits="userSpaceOnUse"
       id="clipPath661">
      <g
         id="g665">
        <path
           d="M 0,0.028 H 595.247 V 841.889 H 0 Z"
           clip-rule="evenodd"
           id="path663" />
      </g>
    </clipPath>
    <clipPath
       clipPathUnits="userSpaceOnUse"
       id="clipPath667">
      <g
         id="g671">
        <path
           d="M 0,0.028 H 595.247 V 841.889 H 0 Z"
           clip-rule="evenodd"
           id="path669" />
      </g>
    </clipPath>
    <clipPath
       clipPathUnits="userSpaceOnUse"
       id="clipPath673">
      <g
         id="g677">
        <path
           d="M 0,0.028 H 595.247 V 841.889 H 0 Z"
           clip-rule="evenodd"
           id="path675" />
      </g>
    </clipPath>
    <clipPath
       clipPathUnits="userSpaceOnUse"
       id="clipPath679">
      <g
         id="g683">
        <path
           d="M 0,0.028 H 595.247 V 841.889 H 0 Z"
           clip-rule="evenodd"
           id="path681" />
      </g>
    </clipPath>
    <clipPath
       clipPathUnits="userSpaceOnUse"
       id="clipPath685">
      <g
         id="g689">
        <path
           d="M 0,0.028 H 595.247 V 841.889 H 0 Z"
           clip-rule="evenodd"
           id="path687" />
      </g>
    </clipPath>
    <clipPath
       clipPathUnits="userSpaceOnUse"
       id="clipPath691">
      <g
         id="g695">
        <path
           d="M 0,0.028 H 595.247 V 841.889 H 0 Z"
           clip-rule="evenodd"
           id="path693" />
      </g>
    </clipPath>
    <clipPath
       clipPathUnits="userSpaceOnUse"
       id="clipPath697">
      <g
         id="g701">
        <path
           d="M 0,0.028 H 595.247 V 841.889 H 0 Z"
           clip-rule="evenodd"
           id="path699" />
      </g>
    </clipPath>
    <clipPath
       clipPathUnits="userSpaceOnUse"
       id="clipPath703">
      <g
         id="g707">
        <path
           d="M 0,0.028 H 595.247 V 841.889 H 0 Z"
           clip-rule="evenodd"
           id="path705" />
      </g>
    </clipPath>
    <clipPath
       clipPathUnits="userSpaceOnUse"
       id="clipPath709">
      <g
         id="g713">
        <path
           d="M 0,0.028 H 595.247 V 841.889 H 0 Z"
           clip-rule="evenodd"
           id="path711" />
      </g>
    </clipPath>
    <clipPath
       clipPathUnits="userSpaceOnUse"
       id="clipPath715">
      <g
         id="g719">
        <path
           d="M 0,0.028 H 595.247 V 841.889 H 0 Z"
           clip-rule="evenodd"
           id="path717" />
      </g>
    </clipPath>
    <clipPath
       clipPathUnits="userSpaceOnUse"
       id="clipPath721">
      <g
         id="g725">
        <path
           d="M 0,0.028 H 595.247 V 841.889 H 0 Z"
           clip-rule="evenodd"
           id="path723" />
      </g>
    </clipPath>
    <clipPath
       clipPathUnits="userSpaceOnUse"
       id="clipPath727">
      <g
         id="g731">
        <path
           d="M 0,0.028 H 595.247 V 841.889 H 0 Z"
           clip-rule="evenodd"
           id="path729" />
      </g>
    </clipPath>
    <clipPath
       clipPathUnits="userSpaceOnUse"
       id="clipPath733">
      <g
         id="g737">
        <path
           d="M 0,0.028 H 595.247 V 841.889 H 0 Z"
           clip-rule="evenodd"
           id="path735" />
      </g>
    </clipPath>
    <clipPath
       clipPathUnits="userSpaceOnUse"
       id="clipPath739">
      <g
         id="g743">
        <path
           d="M 0,0.028 H 595.247 V 841.889 H 0 Z"
           clip-rule="evenodd"
           id="path741" />
      </g>
    </clipPath>
    <clipPath
       clipPathUnits="userSpaceOnUse"
       id="clipPath745">
      <g
         id="g749">
        <path
           d="M 0,0.028 H 595.247 V 841.889 H 0 Z"
           clip-rule="evenodd"
           id="path747" />
      </g>
    </clipPath>
    <clipPath
       clipPathUnits="userSpaceOnUse"
       id="clipPath751">
      <g
         id="g755">
        <path
           d="M 0,0.028 H 595.247 V 841.889 H 0 Z"
           clip-rule="evenodd"
           id="path753" />
      </g>
    </clipPath>
    <clipPath
       clipPathUnits="userSpaceOnUse"
       id="clipPath757">
      <g
         id="g761">
        <path
           d="M 0,0.028 H 595.247 V 841.889 H 0 Z"
           clip-rule="evenodd"
           id="path759" />
      </g>
    </clipPath>
    <clipPath
       clipPathUnits="userSpaceOnUse"
       id="clipPath763">
      <g
         id="g767">
        <path
           d="M 0,0.028 H 595.247 V 841.889 H 0 Z"
           clip-rule="evenodd"
           id="path765" />
      </g>
    </clipPath>
  </defs>
  <sodipodi:namedview
     id="namedview421"
     pagecolor="#ffffff"
     bordercolor="#000000"
     borderopacity="0.25"
     inkscape:showpageshadow="2"
     inkscape:pageopacity="0.0"
     inkscape:pagecheckerboard="0"
     inkscape:deskcolor="#d1d1d1"
     showgrid="false"
     inkscape:zoom="0.76078849"
     inkscape:cx="264.19958"
     inkscape:cy="435.07493"
     inkscape:window-width="1920"
     inkscape:window-height="1000"
     inkscape:window-x="1920"
     inkscape:window-y="0"
     inkscape:window-maximized="1"
     inkscape:current-layer="g427">
    <inkscape:page
       x="0"
       y="0"
       id="page425"
       width="793.70099"
       height="793.70105"
       inkscape:export-filename="Cl-01.png"
       inkscape:export-xdpi="300"
       inkscape:export-ydpi="300" />
  </sodipodi:namedview>
  <g
     inkscape:groupmode="layer"
     id="layer2"
     inkscape:label="Rectangular">
    <path
       id="rect234"
       style="fill:#b4cbc8;stroke:none;stroke-width:0.870565;fill-opacity:1"
       d="M 69.708016,783.9632 H 399.36217 c 4.34813,0 7.84863,-3.3737 7.84863,-7.56436 V 614.0008 c 0,-4.19066 -3.5005,-7.56436 -7.84863,-7.56436 L 200.9488,606.39764 80.756436,476.3191 117.1991,605.5659 69.708016,606.43648 c -4.3474,0.0797 -7.8486,3.3737 -7.8486,7.56436 v 162.39804 c 0,4.19066 3.50047,7.56436 7.8486,7.56436 z"
       sodipodi:nodetypes="ssssscccssss"
       inkscape:label="Rectangular"
       transform="matrix(1.3333333,0,0,-1.3333333,0,1122.5197)" />
  </g>
  <g
     inkscape:groupmode="layer"
     id="layer4"
     inkscape:label="DoubleCircle">
    <circle
       style="fill:#ffffff;fill-opacity:1;stroke-width:1.07367"
       id="path5062"
       cx="352.21259"
       cy="195.71545"
       r="30"
       inkscape:label="Right" />
    <circle
       style="fill:#ffffff;fill-opacity:1;stroke-width:1.07367"
       id="path5062-3"
       cx="226.7849"
       cy="194.85483"
       r="30"
       inkscape:label="Left" />
  </g>
  <g
     inkscape:groupmode="layer"
     id="layer1"
     inkscape:label="Circle">
    <g
       clip-path="url(#clipPath447)"
       opacity="0.59"
       id="g451"
       inkscape:label="Circle"
       transform="matrix(2.1162318,0,0,-1.955201,-114.13575,938.73642)">
      <path
         d="m 354.756,262.743 2.863,1.757 2.75,1.899 2.692,2.041 2.552,2.155 2.466,2.296 2.352,2.381 2.212,2.523 2.097,2.636 1.956,2.721 1.814,2.835 1.673,2.891 1.53,3.005 1.389,3.061 1.219,3.118 1.049,3.175 0.907,3.232 0.737,3.288 0.595,3.316 0.397,3.317 0.255,3.345 0.085,3.373 -0.085,3.345 -0.255,3.345 -0.425,3.345 -0.595,3.288 -0.737,3.288 -0.907,3.203 -1.077,3.203 -1.219,3.118 -1.389,3.062 -1.531,2.976 -1.701,2.92 -1.814,2.806 -1.956,2.721 -2.098,2.637 -2.239,2.494 -2.353,2.41 -2.437,2.267 -2.58,2.155 -2.693,2.041 -2.778,1.87 -2.863,1.758 -2.948,1.616 -3.033,1.445 -3.09,1.304 -3.146,1.134 -3.203,0.992 -3.26,0.822 -3.288,0.652 -3.317,0.51 -3.345,0.341 -3.345,0.141 h -3.373 l -3.345,-0.17 -3.345,-0.34 -3.316,-0.51 -3.288,-0.652 -3.26,-0.822 -3.203,-0.992 -3.147,-1.162 -3.09,-1.304 -3.033,-1.474 -2.948,-1.588 -2.863,-1.757 -2.749,-1.9 -2.693,-2.04 -2.551,-2.155 -2.466,-2.296 -2.353,-2.381 -2.211,-2.523 -2.098,-2.636 -1.956,-2.721 -1.814,-2.835 -1.672,-2.891 -1.531,-3.005 -1.361,-3.061 -1.247,-3.119 -1.049,-3.174 -0.907,-3.232 -0.737,-3.288 -0.595,-3.317 -0.397,-3.316 -0.255,-3.345 -0.085,-3.373 0.085,-3.345 0.255,-3.345 0.425,-3.316 0.595,-3.317 0.737,-3.288 0.908,-3.203 1.077,-3.204 1.219,-3.118 1.389,-3.061 1.53,-2.976 1.701,-2.92 1.814,-2.806 1.956,-2.722 2.098,-2.636 2.239,-2.494 2.353,-2.41 2.438,-2.268 2.579,-2.154 2.693,-2.041 2.778,-1.871 2.863,-1.757 2.948,-1.616 3.033,-1.446 3.09,-1.304 3.146,-1.133 3.204,-0.992 3.259,-0.823 3.289,-0.652 3.316,-0.51 3.345,-0.34 3.345,-0.142 h 3.373 l 3.345,0.17 3.345,0.341 3.316,0.51 32.032,-53.632 z"
         style="fill:#ffbf00;fill-opacity:1;fill-rule:evenodd;stroke:none"
         id="path449"
         inkscape:label="Circle" />
    </g>
  </g>
  <g
     inkscape:groupmode="layer"
     id="layer3"
     inkscape:label="WiFi">
    <ellipse
       style="fill:#007c46;fill-opacity:1;stroke:#007c46;stroke-width:1.83255"
       id="path526"
       cx="399.08267"
       cy="-614.95435"
       transform="matrix(1.3333333,0,0,1.3333333,0,1122.5197)"
       rx="7.3664293"
       ry="7.7711358"
       inkscape:label="Circle" />
    <path
       style="fill:#000000;fill-opacity:0;stroke:#007c46;stroke-width:0.75;stroke-dasharray:none;stroke-opacity:1"
       id="path4519-6-7-3-6"
       sodipodi:type="arc"
       sodipodi:cx="602.87842"
       sodipodi:cy="-408.55988"
       sodipodi:rx="32.145035"
       sodipodi:ry="27.051918"
       sodipodi:start="0.085634634"
       sodipodi:end="1.4739993"
       sodipodi:open="true"
       sodipodi:arc-type="arc"
       d="m 634.90566,-406.24612 a 32.145035,27.051918 0 0 1 -28.92055,24.61153"
       transform="matrix(0,-1.3333333,-1.3333333,0,1.1173241,1121.8939)"
       inkscape:export-filename="path4519-6-7.png"
       inkscape:export-xdpi="300"
       inkscape:export-ydpi="300"
       inkscape:label="Duga-1" />
    <path
       style="fill:#000000;fill-opacity:0;stroke:#007c46;stroke-width:1.66368;stroke-dasharray:none;stroke-opacity:1"
       id="path4519-6-7-3"
       sodipodi:type="arc"
       sodipodi:cx="602.16058"
       sodipodi:cy="-408.41891"
       sodipodi:rx="45.314777"
       sodipodi:ry="39.27927"
       sodipodi:start="0.053245035"
       sodipodi:end="1.4862909"
       sodipodi:open="true"
       sodipodi:arc-type="arc"
       d="m 647.41114,-406.32848 a 45.314777,39.27927 0 0 1 -41.42577,37.04867"
       transform="matrix(0,-1.3333333,-1.3333333,0,1.1173241,1121.8939)"
       inkscape:export-filename="path4519-6-7.png"
       inkscape:export-xdpi="300"
       inkscape:export-ydpi="300"
       inkscape:label="Duga-2" />
    <path
       style="fill:#000000;fill-opacity:0;stroke:#007c46;stroke-width:3.43275;stroke-dasharray:none;stroke-opacity:1"
       id="path4519-6-7"
       sodipodi:type="arc"
       sodipodi:cx="602.44348"
       sodipodi:cy="-408.48813"
       sodipodi:rx="60.559177"
       sodipodi:ry="53.75811"
       sodipodi:start="0.039593647"
       sodipodi:end="1.5099415"
       sodipodi:open="true"
       sodipodi:arc-type="arc"
       d="m 662.9552,-406.36021 a 60.559177,53.75811 0 0 1 -56.82867,51.53068"
       transform="matrix(0,-1.3333333,-1.3333333,0,1.1173241,1121.8939)"
       inkscape:export-filename="path4519-6-7.png"
       inkscape:export-xdpi="300"
       inkscape:export-ydpi="300"
       inkscape:label="Duga-3" />
    <path
       style="fill:#000000;fill-opacity:0;stroke:#007c46;stroke-width:5.72098;stroke-dasharray:none;stroke-opacity:1"
       id="path4519-6"
       sodipodi:type="arc"
       sodipodi:cx="601.9212"
       sodipodi:cy="-408.55719"
       sodipodi:rx="77.287674"
       sodipodi:ry="68.376785"
       sodipodi:start="0.033150472"
       sodipodi:end="1.5172425"
       sodipodi:open="true"
       sodipodi:arc-type="arc"
       d="m 679.16641,-406.29088 a 77.287674,68.376785 0 0 1 -73.10813,66.01245"
       transform="matrix(0,-1.3333333,-1.3333333,0,1.1173241,1121.8939)"
       inkscape:label="Duga-4" />
    <path
       style="fill:#000000;fill-opacity:0;stroke:#007c46;stroke-width:8.03937;stroke-dasharray:none;stroke-opacity:1"
       id="path4519"
       sodipodi:type="arc"
       sodipodi:cx="601.95856"
       sodipodi:cy="-408.48093"
       sodipodi:rx="91.512718"
       sodipodi:ry="82.444252"
       sodipodi:start="0.026702419"
       sodipodi:end="1.524769"
       sodipodi:open="true"
       sodipodi:arc-type="arc"
       d="m 693.43865,-406.27973 a 91.512718,82.444252 0 0 1 -87.26949,80.15574"
       transform="matrix(0,-1.3333333,-1.3333333,0,1.1173241,1121.8939)"
       inkscape:label="Duga-5" />
  </g>
  <g
     id="g427"
     inkscape:groupmode="layer"
     inkscape:label="Буквы"
     transform="matrix(1.3333333,0,0,-1.3333333,0,1122.5197)">
    <path
       id="path471"
       style="fill:#ffffff;stroke:#808080;stroke-width:1.50233;stroke-linecap:butt;stroke-linejoin:miter;stroke-miterlimit:3.8637;stroke-dasharray:none;stroke-opacity:1;fill-opacity:1"
       inkscape:label="W1Liter &quot;o1&quot;"
       d="M 166.39384 252.45271 L 165.85485 252.28289 L 165.3454 252.11307 L 164.86271 251.94325 L 164.40863 251.57365 L 163.92778 251.23401 L 163.4737 250.80946 L 163.04916 250.38291 L 162.6523 249.84548 L 162.25544 249.25012 L 161.82997 248.54087 L 161.49034 247.86059 L 161.14978 247.06744 L 160.80922 246.21734 L 160.49819 245.33827 L 160.15671 244.40227 L 159.87429 243.35438 L 159.59095 242.3055 L 159.3353 241.19867 L 159.10919 239.97997 L 158.90983 238.67636 L 158.71233 237.37174 L 158.54159 236.06913 L 158.34316 234.59469 L 158.20195 233.12026 L 158.05982 231.56092 L 157.9463 230.00158 L 157.86139 228.35832 L 157.77556 226.62916 L 157.72018 224.9 L 157.69065 223.08593 L 157.69065 221.27185 L 157.69065 219.45778 L 157.74787 217.61474 L 157.77556 215.88558 L 157.86139 214.15742 L 157.9463 212.51316 L 158.08843 210.95382 L 158.20195 209.39548 L 158.37177 207.92005 L 158.5702 206.44561 L 158.76863 205.143 L 158.99474 203.86735 L 159.22178 202.56274 L 159.44882 201.42895 L 159.70355 200.21024 L 159.98689 199.16136 L 160.27115 198.14144 L 160.61079 197.17747 L 160.92274 196.24246 L 161.2633 195.36339 L 161.60293 194.59821 L 161.9721 193.88896 L 162.36896 193.20868 L 162.7649 192.58535 L 163.16175 192.07489 L 163.55861 191.56543 L 163.98408 191.11091 L 164.43816 190.77127 L 164.89132 190.51555 L 165.3454 190.26082 L 165.79763 190.091 L 166.30893 190.00609 L 166.7907 190.00609 L 167.30108 190.00609 L 167.83914 190.091 L 168.35044 190.26082 L 168.83129 190.51555 L 169.28537 190.77127 L 169.76713 191.11091 L 170.22029 191.56543 L 170.64576 192.07489 L 171.07123 192.58535 L 171.49577 193.20868 L 171.86494 193.88896 L 172.23319 194.59821 L 172.57283 195.36339 L 172.91339 196.24246 L 173.25395 197.17747 L 173.56497 198.14144 L 173.84923 199.16136 L 174.10396 200.21024 L 174.35869 201.42895 L 174.58573 202.56274 L 174.81277 203.86735 L 175.0112 205.143 L 175.2087 206.44561 L 175.38037 207.92005 L 175.52065 209.39548 L 175.66278 210.95382 L 175.7763 212.51316 L 175.86121 214.15742 L 175.91843 215.88558 L 175.97473 217.61474 L 176.00334 219.45778 L 176.00334 221.27185 L 176.00334 223.08593 L 175.97473 224.9 L 175.91843 226.62916 L 175.8326 228.35832 L 175.74769 230.00158 L 175.6351 231.56092 L 175.49297 233.12026 L 175.35084 234.59469 L 175.18102 236.06913 L 174.95398 237.37174 L 174.72786 238.76127 L 174.52943 239.97997 L 174.27378 241.19867 L 174.01905 242.3055 L 173.73479 243.35438 L 173.45238 244.40227 L 173.11182 245.33827 L 172.79987 246.30225 L 172.46023 247.06744 L 172.11967 247.86059 L 171.75142 248.62578 L 171.35364 249.25012 L 170.95679 249.84548 L 170.56085 250.38291 L 170.16399 250.89437 L 169.73945 251.23401 L 169.25676 251.65856 L 168.83129 251.94325 L 168.35044 252.19798 L 167.89636 252.28289 L 167.38599 252.45271 L 166.90422 252.45271 L 166.39384 252.45271 z M 166.61996 239.18681 L 166.847 239.18681 L 167.07404 239.18681 L 167.30108 239.1019 L 167.49858 239.01699 L 167.75423 238.93208 L 167.95266 238.76127 L 168.1234 238.59145 L 168.32091 238.33572 L 168.49073 238.08099 L 168.66055 237.79829 L 168.80268 237.45765 L 168.97342 237.11701 L 169.11463 236.69246 L 169.22815 236.23895 L 169.37028 235.8134 L 169.48287 235.30294 L 169.625 234.79348 L 169.82436 233.57378 L 169.99417 232.27016 L 170.13538 230.79573 L 170.2489 229.15248 L 170.33381 227.42332 L 170.39103 225.52433 L 170.44733 223.42557 L 170.44733 221.27185 L 170.44733 219.08917 L 170.39103 217.10528 L 170.33381 215.2063 L 170.2489 213.47614 L 170.13538 211.83189 L 169.99417 210.35845 L 169.82436 208.96893 L 169.625 207.75023 L 169.48287 207.23977 L 169.37028 206.70234 L 169.25676 206.19088 L 169.11463 205.76634 L 168.97342 205.31282 L 168.83129 204.97218 L 168.66055 204.63154 L 168.52026 204.37681 L 168.32091 204.12208 L 168.15109 203.86735 L 167.98127 203.66857 L 167.78284 203.49775 L 167.52812 203.41284 L 167.32876 203.32793 L 167.10172 203.24302 L 166.87561 203.24302 L 166.64857 203.24302 L 166.42245 203.32793 L 166.22402 203.41284 L 165.99698 203.49775 L 165.76994 203.66857 L 165.60012 203.86735 L 165.40169 204.12208 L 165.23095 204.37681 L 165.06114 204.63154 L 164.91993 204.97218 L 164.7778 205.31282 L 164.63567 205.76634 L 164.49446 206.19088 L 164.38094 206.70234 L 164.26834 207.23977 L 164.1539 207.75023 L 164.01269 208.34559 L 163.92778 208.96893 L 163.75704 210.27255 L 163.61583 211.83189 L 163.50231 213.39123 L 163.4174 215.2063 L 163.36111 217.02037 L 163.30388 219.08917 L 163.30388 221.27185 L 163.30388 223.42557 L 163.36111 225.52433 L 163.4174 227.42332 L 163.50231 229.15248 L 163.61583 230.79573 L 163.75704 232.27016 L 163.89917 233.57378 L 164.12621 234.79348 L 164.23881 235.30294 L 164.35325 235.8134 L 164.46585 236.23895 L 164.60798 236.69246 L 164.75011 237.11701 L 164.89132 237.45765 L 165.06114 237.79829 L 165.23095 238.08099 L 165.40169 238.33572 L 165.57244 238.59145 L 165.74225 238.76127 L 165.96929 238.93208 L 166.19541 239.01699 L 166.39384 239.1019 L 166.61996 239.18681 z "
       transform="matrix(1.5871739,0,0,1.4664008,-85.601815,137.83746)" />
    <path
       d="m 389.735,120.245 h -7.54 v 35.83 1.587 l -0.056,1.531 -0.057,1.389 -0.113,1.332 -0.142,1.191 -0.142,1.049 -0.198,0.992 -0.085,0.482 -0.142,0.453 -0.114,0.397 -0.113,0.397 -0.142,0.34 -0.141,0.34 -0.142,0.255 -0.17,0.255 -0.17,0.284 -0.17,0.198 -0.17,0.199 -0.227,0.198 -0.17,0.114 -0.199,0.141 -0.255,0.057 -0.198,0.085 -0.255,0.057 h -0.227 -0.369 l -0.34,-0.057 -0.34,-0.142 -0.34,-0.141 -0.284,-0.199 -0.283,-0.198 -0.255,-0.255 -0.284,-0.341 -0.226,-0.311 -0.256,-0.397 -0.198,-0.482 -0.227,-0.454 -0.17,-0.482 -0.17,-0.595 -0.198,-0.595 -0.142,-0.595 -0.142,-0.652 -0.113,-0.737 -0.142,-0.709 -0.085,-0.737 -0.085,-0.879 -0.085,-0.85 -0.142,-1.786 -0.141,-1.984 -0.086,-2.07 -0.028,-2.239 -0.028,-2.381 v -28.885 h -7.54 v 61.398 h 5.782 l 1.021,-7.88 h 0.397 l 0.17,0.595 0.141,0.539 0.171,0.538 0.198,0.511 0.17,0.538 0.17,0.454 0.227,0.397 0.198,0.482 0.227,0.453 0.227,0.397 0.198,0.397 0.255,0.34 0.227,0.34 0.255,0.312 0.227,0.34 0.284,0.255 0.226,0.284 0.284,0.255 0.255,0.198 0.283,0.199 0.255,0.198 0.284,0.198 0.567,0.256 0.567,0.198 0.567,0.198 0.595,0.085 0.595,0.057 h 0.51 l 0.482,-0.057 0.482,-0.141 0.454,-0.142 0.482,-0.113 0.425,-0.284 0.453,-0.255 0.397,-0.255 0.425,-0.34 0.397,-0.397 0.369,-0.454 0.368,-0.481 0.341,-0.511 0.34,-0.595 0.311,-0.595 0.312,-0.681 0.284,-0.737 0.283,-0.708 0.255,-0.879 0.255,-0.794 0.199,-0.907 0.227,-0.935 0.17,-0.992 0.17,-1.078 0.17,-1.105 0.113,-1.134 0.114,-1.19 0.085,-1.276 0.056,-1.247 0.057,-1.389 0.028,-1.389 v -1.474 z"
       style="fill:#ffffff;stroke:#808080;stroke-width:1.50233;stroke-linecap:butt;stroke-linejoin:miter;stroke-miterlimit:3.8637;stroke-dasharray:none;stroke-opacity:1;fill-opacity:1"
       id="path537"
       transform="matrix(1.5871739,0,0,1.4664008,-85.601815,137.83746)"
       inkscape:label="W2Litera 'n3'" />
    <path
       d="m 358.072,182.72 h 0.681 0.34 0.17 l 0.17,-0.085 0.312,-0.113 h 0.17 l 0.142,-0.085 h 0.141 l 0.085,-0.057 h 0.086 0.028 l 0.057,-0.056 h 0.028 V 166.62 l -0.085,0.056 h -0.142 l -0.142,0.057 -0.17,0.085 -0.765,0.199 -0.17,0.056 h -0.199 -0.368 -0.624 -0.368 l -0.369,-0.056 -0.311,-0.057 -0.341,-0.085 -0.368,-0.142 -0.312,-0.113 -0.312,-0.142 -0.312,-0.198 -0.311,-0.256 -0.284,-0.283 -0.283,-0.255 -0.284,-0.34 -0.227,-0.312 -0.226,-0.397 -0.255,-0.397 -0.227,-0.482 -0.227,-0.453 -0.198,-0.539 -0.227,-0.51 -0.17,-0.539 -0.142,-0.68 -0.142,-0.595 -0.17,-0.709 -0.113,-0.737 -0.114,-0.794 -0.085,-0.793 -0.113,-0.851 -0.057,-0.878 -0.056,-0.993 -0.029,-0.935 -0.028,-1.049 v -1.049 -31.209 h -7.54 v 61.398 h 5.726 l 1.105,-9.269 h 0.397 l 0.284,1.134 0.311,1.134 0.312,1.049 0.369,0.992 0.17,0.453 0.198,0.482 0.17,0.397 0.199,0.397 0.397,0.794 0.425,0.737 0.198,0.311 0.255,0.284 0.199,0.312 0.255,0.283 0.227,0.255 0.283,0.199 0.227,0.198 0.283,0.198 0.255,0.142 0.312,0.199 0.284,0.113 0.312,0.085 0.283,0.057 0.34,0.056 0.369,0.085 z"
       style="fill:#ffffff;stroke:#808080;stroke-width:1.50233;stroke-linecap:butt;stroke-linejoin:miter;stroke-miterlimit:3.8637;stroke-dasharray:none;stroke-opacity:1;fill-opacity:1"
       id="path533"
       transform="matrix(1.5871739,0,0,1.4664008,-85.601815,137.83746)"
       inkscape:label="W2Litera &quot;r&quot;" />
    <path
       id="path525"
       style="fill:#ffffff;stroke:#808080;stroke-width:1.50233;stroke-linecap:butt;stroke-linejoin:miter;stroke-miterlimit:3.8637;stroke-dasharray:none;stroke-opacity:1;fill-opacity:1"
       inkscape:label="W2Litera &quot;a&quot;"
       d="M 325.1057 182.83371 L 323.7167 182.77677 L 323.06511 182.63492 L 322.35631 182.52204 L 321.7038 182.32425 L 321.0799 182.03956 L 320.42831 181.72789 L 319.80534 181.38825 L 318.55662 180.59509 L 317.36697 179.65909 L 316.80029 179.14863 L 316.23269 178.55426 L 315.69371 177.95789 L 315.15564 177.33456 L 317.59401 166.22337 L 318.47171 167.15837 L 319.35126 167.95153 L 320.17266 168.66078 L 321.0236 169.34105 L 321.44907 169.59578 L 321.90223 169.79457 L 322.29909 169.99336 L 322.75317 170.19115 L 323.17771 170.333 L 323.63087 170.38994 L 324.08495 170.44588 L 324.53903 170.44588 L 324.96357 170.44588 L 325.36135 170.333 L 325.75729 170.19115 L 326.12646 169.99336 L 326.43841 169.79457 L 326.63591 169.59578 L 326.77804 169.45393 L 326.92018 169.25614 L 327.03277 169.05835 L 327.20259 168.85857 L 327.31703 168.66078 L 327.42963 168.40605 L 327.54315 168.20726 L 327.62806 167.95153 L 327.74158 167.61189 L 327.82741 167.35716 L 327.91232 167.01652 L 327.99723 166.67589 L 328.05445 166.33625 L 328.10983 165.93867 L 328.13936 165.628 L 328.25196 164.83384 L 328.27965 163.95478 L 328.30918 163.04774 L 328.30918 158.39868 L 323.85791 158.05905 L 322.52613 157.86126 L 321.22203 157.60553 L 320.03146 157.15201 L 318.9544 156.61258 L 317.93365 155.87637 L 316.9978 155.02627 L 316.1764 154.09126 L 315.78046 153.55184 L 315.41129 152.95747 L 315.09934 152.3611 L 314.75878 151.70879 L 314.44683 151.05849 L 314.19211 150.32027 L 313.90877 149.58305 L 313.68173 148.73296 L 313.4833 147.9388 L 313.28487 147.0038 L 313.11505 146.1537 L 312.97292 145.13278 L 312.83079 144.14084 L 312.74588 143.09195 L 312.60467 140.90927 L 312.57606 138.52781 L 312.57606 137.33807 L 312.60467 136.14734 L 312.66097 135.01254 L 312.71819 133.87975 L 312.8031 132.83086 L 312.88801 131.83892 L 313.03014 130.84597 L 313.17227 129.91096 L 313.31256 128.97596 L 313.51191 128.1818 L 313.68173 127.33171 L 313.88016 126.59549 L 314.1072 125.85827 L 314.30563 125.14903 L 314.56128 124.46875 L 314.816 123.87338 L 315.09934 123.27801 L 315.35407 122.73859 L 315.66602 122.28607 L 315.95028 121.74664 L 316.28992 121.35006 L 316.62955 120.95448 L 316.97011 120.64182 L 317.33928 120.30218 L 317.70661 120.04645 L 318.04717 119.76275 L 318.44402 119.56496 L 318.84088 119.36617 L 319.20913 119.30923 L 319.60599 119.16838 L 320.03146 119.11144 L 320.45693 119.11144 L 321.22203 119.16838 L 321.95945 119.25329 L 322.61103 119.45108 L 323.23493 119.64987 L 323.83022 119.96054 L 324.11263 120.16033 L 324.3969 120.35812 L 324.68023 120.55691 L 324.90727 120.83961 L 325.19061 121.09533 L 325.41673 121.35006 L 325.89942 121.94643 L 326.12646 122.28607 L 326.35258 122.68265 L 326.551 123.02329 L 326.77804 123.41986 L 326.97555 123.81744 L 327.20259 124.26996 L 327.60037 125.20597 L 328.02492 126.25385 L 328.42178 127.38765 L 328.84724 128.57938 L 329.04567 128.57938 L 330.51959 120.24524 L 335.81995 120.24524 L 335.81995 161.11979 L 335.79226 163.75699 L 335.65013 166.28031 L 335.42401 168.60384 L 335.28188 169.65272 L 335.13975 170.72958 L 334.91271 171.72152 L 334.71521 172.65753 L 334.48817 173.56456 L 334.23344 174.44263 L 333.9501 175.29373 L 333.69445 176.03094 L 333.35389 176.8241 L 333.04287 177.47641 L 332.67369 178.15668 L 332.30637 178.75205 L 331.9372 179.34742 L 331.51173 179.80094 L 331.05765 180.33936 L 330.60542 180.73594 L 329.66865 181.5301 L 328.6202 182.12546 L 327.51454 182.52204 L 326.35258 182.77677 L 325.1057 182.83371 z M 328.30918 148.64805 L 328.30918 143.63138 L 328.30918 142.89416 L 328.27965 142.15695 L 328.25196 141.50464 L 328.22427 140.76842 L 328.13936 140.17206 L 328.08214 139.51975 L 327.99723 138.92538 L 327.91232 138.38695 L 327.82741 137.79059 L 327.71297 137.25316 L 327.60037 136.7427 L 327.48685 136.26121 L 327.34472 135.74976 L 327.2312 135.35418 L 327.03277 134.87169 L 326.89064 134.47511 L 326.72082 134.07754 L 326.52332 133.7379 L 326.35258 133.42623 L 326.18276 133.14253 L 325.95572 132.8868 L 325.75729 132.63207 L 325.53117 132.34937 L 325.33182 132.14958 L 325.1057 131.9518 L 324.87866 131.83892 L 324.65162 131.69707 L 324.3969 131.55522 L 324.16986 131.49828 L 323.91513 131.44234 L 323.68809 131.35743 L 323.40475 131.35743 L 323.0928 131.35743 L 322.75317 131.44234 L 322.4689 131.55522 L 322.18557 131.75401 L 321.93084 131.9518 L 321.64658 132.23549 L 321.42046 132.54716 L 321.19434 132.94374 L 321.10943 133.14253 L 320.99499 133.42623 L 320.91008 133.68096 L 320.85378 133.93569 L 320.74026 134.22038 L 320.68304 134.47511 L 320.62674 134.81475 L 320.57045 135.15539 L 320.51322 135.55197 L 320.48461 135.86364 L 320.42831 136.65779 L 320.37202 137.53586 L 320.37202 138.4429 L 320.37202 138.98232 L 320.3997 139.51975 L 320.3997 140.03121 L 320.42831 140.5127 L 320.48461 141.05112 L 320.51322 141.50464 L 320.57045 141.95816 L 320.62674 142.43965 L 320.71165 142.89416 L 320.79656 143.29074 L 320.91008 143.68732 L 321.0236 144.0839 L 321.13712 144.42354 L 321.24972 144.82112 L 321.42046 145.13278 L 321.56167 145.47342 L 321.7038 145.81306 L 321.90223 146.06879 L 322.10066 146.40943 L 322.29909 146.66416 L 322.52613 146.86195 L 322.75317 147.14565 L 323.00789 147.34443 L 323.23493 147.54322 L 323.51827 147.74101 L 323.773 147.85389 L 324.08495 147.99574 L 324.36921 148.13759 L 324.70884 148.25147 L 325.07709 148.33638 L 325.41673 148.39332 L 325.7859 148.45026 L 328.30918 148.64805 z "
       transform="matrix(1.5871739,0,0,1.4664008,-85.601815,137.83746)" />
    <path
       id="path521"
       style="fill:#ffffff;stroke:#808080;stroke-width:1.50233;stroke-linecap:butt;stroke-linejoin:miter;stroke-miterlimit:3.8637;stroke-dasharray:none;stroke-opacity:1;fill-opacity:1;fill-rule:evenodd"
       inkscape:label="W2Liter &quot;e&quot;"
       d="M 295.34227 182.77677 L 294.66115 182.63492 L 294.00864 182.52204 L 293.32937 182.23934 L 292.70639 181.98262 L 292.08157 181.64298 L 291.48721 181.19046 L 290.91961 180.73594 L 290.35293 180.19751 L 289.78625 179.60215 L 289.27588 178.94984 L 288.76458 178.21262 L 288.28281 177.42047 L 287.80196 176.5414 L 287.34788 175.6913 L 286.92334 174.69836 L 286.52556 173.65047 L 286.15731 172.57162 L 285.78906 171.38188 L 285.44943 170.13521 L 285.16516 168.85857 L 284.85414 167.47004 L 284.59757 166.02358 L 284.34284 164.55015 L 284.14533 163.04774 L 283.94598 161.43246 L 283.80477 159.78821 L 283.69125 158.05905 L 283.57773 156.27294 L 283.52143 154.34599 L 283.46514 152.44601 L 283.46514 150.43415 L 283.49282 148.45026 L 283.52143 146.60722 L 283.60634 144.73621 L 283.69125 143.03501 L 283.83338 141.30585 L 284.03089 139.63363 L 284.20163 138.13223 L 284.42775 136.60085 L 284.71201 135.15539 L 284.96674 133.7379 L 285.3073 132.49122 L 285.64693 131.15764 L 285.98657 129.9679 L 286.41296 128.83411 L 286.8089 127.78522 L 287.26298 126.79328 L 287.71705 125.85827 L 288.22743 125.00718 L 288.73689 124.21302 L 289.21866 123.41986 L 289.81394 122.73859 L 290.38062 122.08728 L 290.97591 121.54885 L 291.57212 121.03939 L 292.19509 120.55691 L 292.84668 120.16033 L 293.5278 119.84766 L 294.20799 119.56496 L 294.88819 119.36617 L 295.597 119.25329 L 296.3058 119.11144 L 297.04322 119.11144 L 297.83601 119.11144 L 298.54482 119.16838 L 299.22502 119.25329 L 299.90614 119.36617 L 300.52911 119.50802 L 301.15301 119.64987 L 301.71969 119.9046 L 302.28728 120.16033 L 302.85396 120.44303 L 303.39203 120.7547 L 303.90241 121.09533 L 304.41278 121.49191 L 304.92316 121.88949 L 305.43262 122.34301 L 305.91531 122.88144 L 306.42476 123.41986 L 306.42476 136.40206 L 305.34771 135.26927 L 304.80872 134.72984 L 304.29926 134.27632 L 303.7612 133.82281 L 303.2499 133.42623 L 302.71183 133.08559 L 302.17284 132.74595 L 301.63478 132.49122 L 301.09579 132.23549 L 300.5568 132.0367 L 299.99105 131.89486 L 299.42437 131.75401 L 298.82816 131.64013 L 298.23287 131.55522 L 297.58129 131.55522 L 297.21304 131.55522 L 296.84387 131.64013 L 296.47562 131.69707 L 296.16367 131.83892 L 295.82404 131.9518 L 295.48255 132.14958 L 295.20014 132.34937 L 294.88819 132.63207 L 294.60485 132.8868 L 294.32059 133.22844 L 294.06586 133.53911 L 293.78345 133.87975 L 293.55641 134.27632 L 293.30076 134.6729 L 293.10233 135.15539 L 292.87621 135.60891 L 292.67686 136.14734 L 292.50704 136.65779 L 292.30861 137.19622 L 292.13879 137.79059 L 291.99666 138.38695 L 291.82684 139.03926 L 291.71332 139.71854 L 291.5998 140.37085 L 291.48721 141.10806 L 291.4023 141.84528 L 291.28785 142.63943 L 291.23063 143.43159 L 291.17526 144.22575 L 291.14572 145.0199 L 291.11804 145.87 L 291.09035 146.74907 L 308.01312 146.74907 L 308.01312 154.88442 L 308.01312 156.55664 L 307.9559 158.14395 L 307.89867 159.64636 L 307.81376 161.17673 L 307.70117 162.65116 L 307.53135 164.09663 L 307.38922 165.42921 L 307.19079 166.73283 L 306.96375 168.00947 L 306.73671 169.1992 L 306.4543 170.38994 L 306.19772 171.52373 L 305.85808 172.57162 L 305.51845 173.56456 L 305.17789 174.55651 L 304.80872 175.49152 L 304.41278 176.34261 L 304.01592 177.13577 L 303.56185 177.95789 L 303.08008 178.66714 L 302.59831 179.26151 L 302.11654 179.85787 L 301.57755 180.45324 L 301.03857 180.93473 L 300.47189 181.38825 L 299.90614 181.72789 L 299.30993 182.03956 L 298.65834 182.32425 L 298.03537 182.52204 L 297.38286 182.63492 L 296.73127 182.77677 L 296.02154 182.77677 L 295.34227 182.77677 z M 296.10737 170.84346 L 296.39071 170.84346 L 296.70174 170.78652 L 296.95739 170.72958 L 297.24073 170.58773 L 297.46777 170.44588 L 297.72342 170.333 L 297.95046 170.13521 L 298.20518 169.85051 L 298.40269 169.59578 L 298.60204 169.34105 L 298.82816 169.00141 L 298.99798 168.66078 L 299.16872 168.34911 L 299.36715 167.95153 L 299.50928 167.55495 L 299.64956 167.15837 L 299.8203 166.67589 L 299.96243 166.28031 L 300.07595 165.74088 L 300.18855 165.28736 L 300.33068 164.74893 L 300.41559 164.15357 L 300.50142 163.64311 L 300.5568 163.04774 L 300.61402 162.45337 L 300.69893 161.85801 L 300.72754 161.17673 L 300.78384 160.52542 L 300.86875 159.24978 L 300.89828 157.86126 L 291.23063 157.86126 L 291.28785 159.53348 L 291.4023 160.97894 L 291.54258 162.45337 L 291.71332 163.70005 L 291.94036 164.89078 L 292.05388 165.42921 L 292.1674 165.93867 L 292.28 166.42116 L 292.44982 166.87467 L 292.61964 167.35716 L 292.76177 167.75374 L 293.10233 168.46199 L 293.27215 168.80163 L 293.47057 169.05835 L 293.669 169.39799 L 293.83882 169.59578 L 294.06586 169.85051 L 294.26521 170.0503 L 294.46272 170.24809 L 294.68976 170.38994 L 294.88819 170.53179 L 295.14292 170.64467 L 295.62468 170.78652 L 296.10737 170.84346 z "
       transform="matrix(1.5871739,0,0,1.4664008,-85.601815,137.83746)" />
    <path
       d="m 277.398,144.226 h 0.426 l 0.368,0.17 0.425,0.369 0.199,0.34 0.198,0.17 0.397,0.51 0.425,0.709 0.397,0.68 0.369,0.709 v -23.471 l -0.426,-1.021 -0.482,-0.878 -0.538,-1.049 -0.595,-0.681 -0.624,-0.708 -0.652,-0.51 -0.68,-0.17 -0.709,-0.171 -0.68,0.171 h -0.369 l -0.34,0.17 -0.312,0.34 -0.283,0.17 -0.34,0.538 -0.284,0.341 -0.312,0.51 -0.283,0.538 -0.284,0.681 -0.255,0.708 -0.283,0.851 -0.255,0.878 -0.227,0.879 -0.227,1.021 -0.227,1.219 -0.198,1.219 -0.198,1.388 -0.142,1.389 -0.199,1.56 -0.17,1.587 -0.141,1.729 -0.114,1.729 -0.142,1.928 -0.085,1.899 -0.085,2.268 -0.085,2.239 -0.056,2.268 -0.057,2.608 -0.028,2.608 v 2.607 55.588 h -2.778 v 13.209 l 3.203,10.602 1.701,24.123 h 3.77 v -24.322 h 5.244 v -23.612 h -5.244 v -55.588 -1.559 l 0.028,-1.587 0.085,-1.389 0.057,-1.191 0.028,-0.708 0.028,-0.511 0.086,-0.538 0.056,-0.51 0.029,-0.511 0.056,-0.538 0.114,-0.51 0.056,-0.369 0.057,-0.34 0.113,-0.34 0.085,-0.34 0.085,-0.369 0.086,-0.34 0.113,-0.17 0.085,-0.34 0.085,-0.17 0.198,-0.369 0.227,-0.17 0.227,-0.17 z"
       style="fill:#ffffff;stroke:#808080;stroke-width:1.50233;stroke-linecap:butt;stroke-linejoin:miter;stroke-miterlimit:3.8637;stroke-dasharray:none;stroke-opacity:1;fill-opacity:1"
       id="path543"
       inkscape:label="Litera &quot;t&quot;"
       transform="matrix(1.5871739,0,0,1.4664008,-85.601815,137.83746)" />
    <path
       d="m 277.398,144.226 h 0.426 l 0.368,0.17 0.425,0.369 0.199,0.34 0.198,0.17 0.397,0.51 0.425,0.709 0.397,0.68 0.369,0.709 v -23.471 l -0.426,-1.021 -0.482,-0.878 -0.538,-1.049 -0.595,-0.681 -0.624,-0.708 -0.652,-0.51 -0.68,-0.17 -0.709,-0.171 -0.68,0.171 h -0.369 l -0.34,0.17 -0.312,0.34 -0.283,0.17 -0.34,0.538 -0.284,0.341 -0.312,0.51 -0.283,0.538 -0.284,0.681 -0.255,0.708 -0.283,0.851 -0.255,0.878 -0.227,0.879 -0.227,1.021 -0.227,1.219 -0.198,1.219 -0.198,1.388 -0.142,1.389 -0.199,1.56 -0.17,1.587 -0.141,1.729 -0.114,1.729 -0.142,1.928 -0.085,1.899 -0.085,2.268 -0.085,2.239 -0.056,2.268 -0.057,2.608 -0.028,2.608 v 2.607 55.588 h -2.778 v 13.209 l 3.203,10.602 1.701,24.123 h 3.77 v -24.322 h 5.244 v -23.612 h -5.244 v -55.588 -1.559 l 0.028,-1.587 0.085,-1.389 0.057,-1.191 0.028,-0.708 0.028,-0.511 0.086,-0.538 0.056,-0.51 0.029,-0.511 0.056,-0.538 0.114,-0.51 0.056,-0.369 0.057,-0.34 0.113,-0.34 0.085,-0.34 0.085,-0.369 0.086,-0.34 0.113,-0.17 0.085,-0.34 0.085,-0.17 0.198,-0.369 0.227,-0.17 0.227,-0.17 z"
       style="fill:#ffffff;fill-opacity:0;fill-rule:evenodd;stroke:none"
       id="path539"
       clip-path="url(#clipPath607)"
       transform="matrix(1.5871739,0,0,1.4664008,-85.601815,137.83746)"
       inkscape:label="Litera &quot;t2&quot;" />
    <path
       id="path511"
       style="fill:#ffffff;stroke:#808080;stroke-width:1.50236696;stroke-linecap:butt;stroke-linejoin:miter;stroke-miterlimit:3.8637;stroke-dasharray:none;stroke-opacity:1;fill-opacity:1"
       inkscape:label="W1Liter &quot;e2&quot;"
       d="M 323.94282 252.45271 L 323.43336 252.3678 L 322.95067 252.19798 L 322.49844 251.94325 L 322.01575 251.65856 L 321.56167 251.31892 L 321.13712 250.89437 L 320.71165 250.46882 L 320.3148 249.93039 L 319.89025 249.33503 L 319.52108 248.73866 L 319.18144 247.9455 L 318.81319 247.18032 L 318.50125 246.38716 L 318.16069 245.42318 L 317.84874 244.48718 L 317.5654 243.43929 L 317.28206 242.39041 L 317.02733 241.28358 L 316.80029 240.06488 L 316.57325 238.76127 L 316.34621 237.45765 L 316.14779 236.06913 L 315.97797 234.59469 L 315.83584 233.12026 L 315.69371 231.47601 L 315.58111 229.83176 L 315.4962 228.1875 L 315.41129 226.37443 L 315.35407 224.56036 L 315.32638 222.74629 L 315.32638 220.73343 L 315.32638 218.83445 L 315.38268 216.93546 L 315.43898 215.2063 L 315.52389 213.47614 L 315.6088 211.83189 L 315.75093 210.18764 L 315.89306 208.62929 L 316.06288 207.15486 L 316.23269 205.76634 L 316.43112 204.37681 L 316.68677 203.0732 L 316.94242 201.85449 L 317.19715 200.63479 L 317.45188 199.61487 L 317.76383 198.48108 L 318.07578 197.5171 L 318.44402 196.5821 L 318.78366 195.70303 L 319.15283 194.93785 L 319.52108 194.2286 L 319.91794 193.54932 L 320.34341 192.92499 L 320.76887 192.41453 L 321.19434 191.90507 L 321.64658 191.47952 L 322.12927 191.026 L 322.61103 190.68636 L 323.0928 190.43064 L 323.57457 190.26082 L 324.11263 190.091 L 324.62394 190.00609 L 325.162 190.00609 L 325.70099 190.00609 L 326.23906 190.091 L 326.72082 190.17591 L 327.20259 190.26082 L 327.68528 190.43064 L 328.10983 190.60146 L 328.5353 190.77127 L 328.93215 191.026 L 329.32901 191.28073 L 329.72587 191.65034 L 330.09412 191.98998 L 330.46329 192.32962 L 330.83061 192.75517 L 331.17209 193.20868 L 331.56895 193.71914 L 331.90859 194.2286 L 331.90859 206.98504 L 331.54034 206.3607 L 331.11487 205.85125 L 330.37838 204.88727 L 330.00921 204.46172 L 329.64096 204.12208 L 328.84724 203.41284 L 328.45039 203.15811 L 328.08214 202.90338 L 327.68528 202.73256 L 327.25981 202.56274 L 326.86295 202.39292 L 326.43841 202.30801 L 326.01294 202.19513 L 325.53117 202.19513 L 325.27644 202.19513 L 325.01987 202.30801 L 324.76514 202.39292 L 324.51042 202.47783 L 324.28338 202.64765 L 324.05726 202.81847 L 323.80161 202.98829 L 323.60318 203.24302 L 323.40475 203.49775 L 323.20632 203.86735 L 323.00789 204.12208 L 322.80854 204.46172 L 322.63872 204.88727 L 322.4689 205.22791 L 322.29909 205.76634 L 322.15696 206.19088 L 321.98714 206.70234 L 321.84593 207.23977 L 321.73241 207.75023 L 321.61889 208.34559 L 321.50629 208.96893 L 321.39185 209.5653 L 321.30694 210.18764 L 321.22203 210.86891 L 321.13712 211.57716 L 321.0799 212.25844 L 321.0236 213.02262 L 320.9673 213.81678 L 320.93869 214.58197 L 320.88239 215.37612 L 320.88239 216.25419 L 320.85378 217.10528 L 333.04287 217.10528 L 333.04287 225.06982 L 333.04287 226.71407 L 333.01425 228.27341 L 332.95703 229.83176 L 332.90073 231.30619 L 332.81583 232.77962 L 332.70231 234.16915 L 332.58879 235.47276 L 332.44666 236.77737 L 332.30637 237.99608 L 332.13471 239.18681 L 331.9372 240.31961 L 331.73877 241.4544 L 331.54034 242.47532 L 331.28469 243.5242 L 331.00228 244.48718 L 330.7457 245.33827 L 330.46329 246.21734 L 330.15134 246.98153 L 329.83939 247.69077 L 329.52836 248.37105 L 329.13058 249.0803 L 328.79095 249.58976 L 328.42178 250.10021 L 328.02492 250.63864 L 327.62806 251.06419 L 327.1749 251.40383 L 326.77804 251.74446 L 326.32397 252.02816 L 325.87081 252.19798 L 325.38904 252.3678 L 324.90727 252.45271 L 324.42458 252.45271 L 323.94282 252.45271 z M 324.48181 240.74616 L 324.68023 240.74616 L 324.87866 240.66125 L 325.07709 240.57634 L 325.27644 240.49143 L 325.44626 240.40552 L 325.61608 240.2347 L 325.81359 239.97997 L 325.98433 239.81015 L 326.12646 239.55542 L 326.29628 239.27172 L 326.43841 238.93208 L 326.551 238.59145 L 326.69314 238.25081 L 326.80573 237.91117 L 326.92018 237.54256 L 327.03277 237.11701 L 327.14629 236.69246 L 327.2312 236.23895 L 327.31703 235.72849 L 327.40194 235.30294 L 327.48685 234.79348 L 327.60037 234.25406 L 327.65667 233.7436 L 327.71297 233.12026 L 327.77019 232.52489 L 327.79788 231.92953 L 327.82741 231.30619 L 327.88279 230.71082 L 327.91232 229.40721 L 327.94001 228.01768 L 320.9673 228.01768 L 321.0236 229.57703 L 321.0799 231.13637 L 321.19434 232.52489 L 321.30694 233.7436 L 321.44907 234.87839 L 321.61889 235.98322 L 321.73241 236.43674 L 321.81732 236.86228 L 321.93084 237.28683 L 322.04436 237.71338 L 322.3277 238.42063 L 322.44122 238.76127 L 322.58335 239.01699 L 322.69594 239.27172 L 322.83807 239.55542 L 322.9802 239.81015 L 323.15002 239.97997 L 323.29123 240.14979 L 323.43336 240.31961 L 323.60318 240.49143 L 323.773 240.57634 L 324.14217 240.66125 L 324.48181 240.74616 z "
       transform="matrix(1.5871739,0,0,1.4664008,-85.601815,137.83746)" />
    <path
       d="m 300.813,191.026 -7.087,60.293 h 5.698 l 3.345,-34.384 0.141,-1.559 0.142,-1.559 0.113,-1.559 0.114,-1.645 0.085,-1.644 0.085,-1.559 0.057,-1.389 0.056,-1.389 h 0.085 l 0.057,1.474 0.085,1.474 0.057,1.559 0.113,1.559 0.113,1.645 0.114,1.559 0.142,1.559 0.141,1.474 3.317,34.384 h 5.726 l -7.087,-60.293 z"
       style="fill:#ffffff;stroke:#808080;stroke-width:1.50233;stroke-linecap:butt;stroke-linejoin:miter;stroke-miterlimit:3.8637;stroke-dasharray:none;stroke-opacity:1;fill-opacity:1"
       id="path503"
       transform="matrix(1.5871739,0,0,1.4664008,-85.601815,137.83746)"
       inkscape:label="W1Liter &quot;v1&quot;" />
    <path
       d="m 285.137,266.909 v 0.624 l 0.028,0.51 v 0.511 l 0.029,0.538 0.056,0.425 0.029,0.426 0.085,0.453 0.056,0.425 0.057,0.34 0.057,0.341 0.085,0.34 0.057,0.368 0.085,0.255 0.085,0.255 0.113,0.256 0.085,0.255 0.113,0.283 0.086,0.17 0.113,0.255 0.113,0.17 0.114,0.171 0.141,0.085 0.114,0.17 0.142,0.085 0.141,0.085 0.142,0.085 0.142,0.085 h 0.141 l 0.312,0.085 h 0.284 0.283 l 0.284,-0.085 0.311,-0.085 0.142,-0.085 0.142,-0.085 0.113,-0.085 0.142,-0.17 0.113,-0.085 0.114,-0.171 0.113,-0.17 0.114,-0.255 0.085,-0.17 0.113,-0.283 0.085,-0.255 0.113,-0.256 0.085,-0.255 0.086,-0.255 0.085,-0.368 0.056,-0.34 0.085,-0.341 0.085,-0.34 0.057,-0.425 0.028,-0.453 0.057,-0.426 0.028,-0.425 0.029,-0.538 v -0.511 l 0.028,-0.51 v -0.624 -0.51 l -0.028,-0.51 v -0.539 l -0.029,-0.51 -0.028,-0.425 -0.057,-0.454 -0.028,-0.425 -0.057,-0.425 -0.085,-0.34 -0.085,-0.454 -0.056,-0.34 -0.085,-0.255 -0.086,-0.34 -0.085,-0.255 -0.113,-0.284 -0.085,-0.255 -0.113,-0.255 -0.085,-0.17 -0.114,-0.17 -0.113,-0.17 -0.114,-0.17 -0.113,-0.085 -0.142,-0.199 -0.113,-0.085 -0.142,-0.085 -0.142,-0.085 -0.17,-0.085 -0.141,-0.085 h -0.142 l -0.142,-0.085 h -0.283 -0.284 l -0.17,0.085 h -0.142 l -0.141,0.085 -0.142,0.085 -0.142,0.085 -0.141,0.085 -0.142,0.085 -0.114,0.199 -0.141,0.085 -0.114,0.17 -0.113,0.17 -0.113,0.17 -0.086,0.17 -0.113,0.255 -0.085,0.255 -0.113,0.284 -0.085,0.255 -0.085,0.34 -0.057,0.255 -0.085,0.34 -0.057,0.454 -0.057,0.34 -0.056,0.425 -0.085,0.425 -0.029,0.454 -0.056,0.425 -0.029,0.51 v 0.539 l -0.028,0.51 z"
       style="fill:#ffffff;stroke:#808080;stroke-width:1.50233;stroke-linecap:butt;stroke-linejoin:miter;stroke-miterlimit:3.8637;stroke-dasharray:none;stroke-opacity:1;fill-opacity:1"
       id="path495"
       transform="matrix(1.5871739,0,0,1.4664008,-85.601815,137.83746)"
       inkscape:label="W1Liter &quot;i2&quot;" />
    <path
       d="m 290.863,191.026 h -5.443 v 60.293 h 5.443 z"
       style="fill:#ffffff;stroke:#808080;stroke-width:1.50233;stroke-linecap:butt;stroke-linejoin:miter;stroke-miterlimit:3.8637;stroke-dasharray:none;stroke-opacity:1;fill-opacity:1"
       id="path499"
       transform="matrix(1.5871739,0,0,1.4664008,-85.601815,137.83746)"
       inkscape:label="W1Liter &quot;i1&quot;" />
    <path
       d="m 256.365,190.006 h -0.567 l -0.51,0.085 -0.482,0.17 -0.482,0.17 -0.51,0.255 -0.453,0.34 -0.454,0.34 -0.425,0.454 -0.454,0.425 -0.397,0.51 -0.396,0.624 -0.369,0.595 -0.34,0.794 -0.369,0.765 -0.34,0.794 -0.311,0.935 -0.284,0.964 -0.283,1.049 -0.256,1.105 -0.255,1.134 -0.226,1.304 -0.199,1.304 -0.198,1.304 -0.17,1.446 -0.142,1.474 -0.142,1.559 -0.113,1.672 -0.085,1.729 -0.085,1.814 -0.057,1.815 -0.028,1.984 v 2.013 2.154 l 0.056,2.154 0.029,2.013 0.085,1.899 0.085,1.814 0.142,1.729 0.113,1.644 0.17,1.559 0.17,1.474 0.198,1.474 0.199,1.304 0.227,1.304 0.283,1.134 0.255,1.106 0.284,1.049 0.283,0.963 0.312,0.851 0.312,0.878 0.368,0.681 0.369,0.708 0.368,0.596 0.369,0.595 0.397,0.454 0.453,0.425 0.425,0.34 0.454,0.34 0.454,0.284 0.51,0.17 0.482,0.17 0.482,0.17 0.51,0.085 h 0.538 l 0.737,-0.085 0.794,-0.17 0.369,-0.17 0.396,-0.17 0.369,-0.284 0.368,-0.255 0.766,-0.595 0.737,-0.794 0.708,-0.85 0.341,-0.454 0.34,-0.51 -1.588,-12.473 -0.567,0.794 -0.595,0.595 -0.567,0.596 -0.538,0.538 -0.539,0.425 -0.283,0.17 -0.256,0.171 -0.255,0.085 -0.255,0.085 -0.227,0.085 h -0.255 -0.226 l -0.284,-0.085 -0.227,-0.085 -0.198,-0.085 -0.199,-0.171 -0.198,-0.255 -0.198,-0.17 -0.199,-0.255 -0.17,-0.368 -0.142,-0.341 -0.17,-0.34 -0.17,-0.425 -0.141,-0.453 -0.142,-0.511 -0.114,-0.51 -0.113,-0.538 -0.198,-1.191 -0.17,-1.304 -0.171,-1.559 -0.113,-1.559 -0.113,-1.814 -0.057,-1.928 -0.057,-2.069 v -2.154 -2.183 l 0.057,-2.069 0.057,-1.9 0.113,-1.729 0.113,-1.559 0.171,-1.474 0.17,-1.304 0.085,-0.623 0.113,-0.511 0.113,-0.51 0.114,-0.538 0.142,-0.426 0.141,-0.425 0.17,-0.34 0.142,-0.454 0.17,-0.255 0.17,-0.34 0.17,-0.17 0.17,-0.255 0.199,-0.198 0.198,-0.171 0.199,-0.085 0.226,-0.085 0.482,-0.085 h 0.369 l 0.397,0.085 0.34,0.085 0.397,0.085 0.34,0.171 0.34,0.283 0.34,0.255 0.312,0.255 0.652,0.681 0.624,0.708 0.652,0.766 0.68,0.963 v -13.776 l -0.68,-0.85 -0.312,-0.454 -0.312,-0.34 -0.312,-0.34 -0.312,-0.34 -0.34,-0.369 -0.312,-0.255 -0.312,-0.255 -0.34,-0.17 -0.652,-0.255 -0.368,-0.085 -0.369,-0.085 -0.368,-0.085 z"
       style="fill:#ffffff;stroke:#808080;stroke-width:1.50233;stroke-linecap:butt;stroke-linejoin:miter;stroke-miterlimit:3.8637;stroke-dasharray:none;stroke-opacity:1;fill-opacity:1"
       id="path491"
       transform="matrix(1.5871739,0,0,1.4664008,-85.601815,137.83746)"
       inkscape:label="W1Liter &quot;c2&quot;" />
    <path
       id="path487"
       style="fill:#ffffff;stroke:#808080;stroke-width:1.50233;stroke-linecap:butt;stroke-linejoin:miter;stroke-miterlimit:3.8637;stroke-dasharray:none;stroke-opacity:1;fill-opacity:1"
       inkscape:label="W1Liter &quot;e1&quot;"
       d="M 234.28334 252.45271 L 233.77296 252.3678 L 233.2912 252.19798 L 232.83804 251.94325 L 232.38396 251.65856 L 231.90219 251.31892 L 231.47672 250.89437 L 231.05218 250.46882 L 230.65532 249.93039 L 230.25754 249.33503 L 229.86068 248.73866 L 229.52104 247.9455 L 229.1528 247.18032 L 228.84085 246.38716 L 228.5289 245.42318 L 228.18926 244.48718 L 227.90592 243.43929 L 227.62166 242.39041 L 227.36693 241.28358 L 227.1399 240.06488 L 226.91286 238.76127 L 226.71535 237.45765 L 226.48831 236.06913 L 226.31757 234.59469 L 226.17636 233.12026 L 226.03515 231.47601 L 225.92071 229.83176 L 225.8358 228.1875 L 225.75089 226.37443 L 225.69367 224.56036 L 225.66598 222.74629 L 225.66598 220.73343 L 225.66598 218.83445 L 225.7232 216.93546 L 225.78043 215.2063 L 225.86533 213.47614 L 225.95024 211.83189 L 226.09145 210.18764 L 226.23266 208.62929 L 226.4034 207.15486 L 226.60183 205.76634 L 226.80026 204.37681 L 227.0273 203.0732 L 227.28203 201.85449 L 227.53675 200.63479 L 227.7924 199.61487 L 228.10435 198.48108 L 228.44399 197.5171 L 228.78363 196.5821 L 229.12419 195.70303 L 229.49336 194.93785 L 229.86068 194.2286 L 230.28707 193.54932 L 230.68301 192.92499 L 231.1094 192.41453 L 231.53395 191.90507 L 231.9871 191.47952 L 232.46887 191.026 L 232.95064 190.68636 L 233.43333 190.43064 L 233.94278 190.26082 L 234.45408 190.091 L 234.96446 190.00609 L 235.5016 190.00609 L 236.0692 190.00609 L 236.57958 190.091 L 237.06135 190.17591 L 237.57173 190.26082 L 238.02488 190.43064 L 238.45035 190.60146 L 238.87582 190.77127 L 239.27176 191.026 L 239.69815 191.28073 L 240.06639 191.65034 L 240.43464 191.98998 L 240.80289 192.32962 L 241.17206 192.75517 L 241.54031 193.20868 L 241.90855 193.71914 L 242.24911 194.2286 L 242.24911 206.98504 L 241.87994 206.3607 L 241.48309 205.85125 L 240.71798 204.88727 L 240.34973 204.46172 L 239.98056 204.12208 L 239.18685 203.41284 L 238.79091 203.15811 L 238.42174 202.90338 L 238.02488 202.73256 L 237.62802 202.56274 L 237.20256 202.39292 L 236.77801 202.30801 L 236.35254 202.19513 L 235.89938 202.19513 L 235.61605 202.19513 L 235.36132 202.30801 L 235.10567 202.39292 L 234.85002 202.47783 L 234.6239 202.64765 L 234.39686 202.81847 L 234.16982 202.98829 L 233.97232 203.24302 L 233.74528 203.49775 L 233.54592 203.86735 L 233.34842 204.12208 L 233.14999 204.46172 L 232.98017 204.88727 L 232.80943 205.22791 L 232.63869 205.76634 L 232.4984 206.19088 L 232.35627 206.70234 L 232.21414 207.23977 L 232.10062 207.75023 L 231.95941 208.34559 L 231.84589 208.96893 L 231.73237 209.5653 L 231.64654 210.18764 L 231.56163 210.86891 L 231.47672 211.57716 L 231.42043 212.25844 L 231.36413 213.02262 L 231.30691 213.81678 L 231.27922 214.58197 L 231.222 215.37612 L 231.222 216.25419 L 231.19431 217.10528 L 243.41108 217.10528 L 243.41108 225.06982 L 243.41108 226.71407 L 243.38339 228.27341 L 243.32617 229.83176 L 243.26895 231.30619 L 243.18404 232.77962 L 243.07144 234.16915 L 242.92931 235.47276 L 242.78718 236.77737 L 242.64597 237.99608 L 242.47615 239.18681 L 242.2768 240.31961 L 242.0793 241.4544 L 241.87994 242.47532 L 241.62522 243.5242 L 241.36957 244.48718 L 241.08715 245.33827 L 240.80289 246.21734 L 240.49094 246.98153 L 240.17991 247.69077 L 239.86797 248.37105 L 239.49879 249.0803 L 239.13055 249.58976 L 238.7623 250.10021 L 238.36544 250.63864 L 237.96858 251.06419 L 237.51543 251.40383 L 237.11765 251.74446 L 236.66541 252.02816 L 236.21133 252.19798 L 235.75725 252.3678 L 235.24688 252.45271 L 234.76511 252.45271 L 234.28334 252.45271 z M 234.82233 240.74616 L 235.01984 240.74616 L 235.21919 240.66125 L 235.41669 240.57634 L 235.61605 240.49143 L 235.81355 240.40552 L 235.98429 240.2347 L 236.15411 239.97997 L 236.32393 239.81015 L 236.46606 239.55542 L 236.63588 239.27172 L 236.77801 238.93208 L 236.89061 238.59145 L 237.03274 238.25081 L 237.14626 237.91117 L 237.25978 237.54256 L 237.3733 237.11701 L 237.48682 236.69246 L 237.60034 236.23895 L 237.68525 235.72849 L 237.77015 235.30294 L 237.85506 234.79348 L 237.93997 234.25406 L 237.99719 233.7436 L 238.05442 233.12026 L 238.10979 232.52489 L 238.13933 231.92953 L 238.16701 231.30619 L 238.22423 230.71082 L 238.25192 229.40721 L 238.27961 228.01768 L 231.30691 228.01768 L 231.36413 229.57703 L 231.42043 231.13637 L 231.53395 232.52489 L 231.64654 233.7436 L 231.78867 234.87839 L 231.95941 235.98322 L 232.10062 236.43674 L 232.18645 236.86228 L 232.29905 237.28683 L 232.41257 237.71338 L 232.66822 238.42063 L 232.78082 238.76127 L 232.92295 239.01699 L 233.03555 239.27172 L 233.17768 239.55542 L 233.31981 239.81015 L 233.48962 239.97997 L 233.63083 240.14979 L 233.77296 240.31961 L 233.97232 240.49143 L 234.14213 240.57634 L 234.48177 240.66125 L 234.82233 240.74616 z "
       transform="matrix(1.5871739,0,0,1.4664008,-85.601815,137.83746)" />
    <path
       d="m 221.102,191.026 h -5.471 v 35.178 1.559 l -0.028,1.559 -0.057,1.304 -0.085,1.304 -0.085,1.105 -0.113,1.134 -0.142,0.964 -0.056,0.425 -0.085,0.425 -0.086,0.454 -0.085,0.34 -0.113,0.34 -0.085,0.341 -0.113,0.255 -0.114,0.283 -0.113,0.255 -0.142,0.255 -0.142,0.17 -0.113,0.17 -0.17,0.086 -0.17,0.17 -0.142,0.085 h -0.17 l -0.17,0.085 h -0.17 -0.255 l -0.255,-0.085 -0.227,-0.085 -0.227,-0.17 -0.255,-0.171 -0.198,-0.17 -0.199,-0.255 -0.17,-0.34 -0.17,-0.368 -0.17,-0.341 -0.142,-0.425 -0.17,-0.51 -0.113,-0.454 -0.142,-0.595 -0.113,-0.51 -0.142,-0.624 -0.085,-0.68 -0.085,-0.709 -0.085,-0.68 -0.085,-0.794 -0.085,-0.765 -0.057,-0.879 -0.057,-0.85 -0.056,-0.879 -0.085,-1.899 -0.057,-2.069 -0.028,-2.268 v -2.325 -28.346 h -5.443 v 60.293 h 4.139 l 0.765,-7.71 h 0.312 l 0.113,0.623 0.114,0.511 0.113,0.51 0.142,0.538 0.113,0.426 0.142,0.51 0.141,0.453 0.171,0.426 0.141,0.425 0.17,0.34 0.17,0.368 0.142,0.341 0.34,0.68 0.369,0.623 0.368,0.511 0.397,0.34 0.397,0.425 0.397,0.284 0.397,0.255 0.453,0.085 0.425,0.17 h 0.426 0.368 l 0.34,-0.085 0.369,-0.085 0.312,-0.17 0.34,-0.17 0.312,-0.199 0.283,-0.255 0.312,-0.34 0.312,-0.34 0.283,-0.34 0.284,-0.454 0.255,-0.425 0.255,-0.51 0.227,-0.624 0.226,-0.595 0.256,-0.596 0.198,-0.708 0.198,-0.766 0.17,-0.793 0.171,-0.851 0.17,-0.878 0.141,-0.964 0.142,-0.936 0.113,-1.049 0.114,-1.048 0.085,-1.106 0.085,-1.219 0.057,-1.219 0.085,-1.219 0.028,-1.389 0.028,-2.749 z"
       style="fill:#ffffff;stroke:#808080;stroke-width:1.50233;stroke-linecap:butt;stroke-linejoin:miter;stroke-miterlimit:3.8637;stroke-dasharray:none;stroke-opacity:1;fill-opacity:1"
       id="path479"
       transform="matrix(1.5871739,0,0,1.4664008,-85.601815,137.83746)"
       inkscape:label="W1Liter &quot;n2&quot;" />
    <path
       d="m 198.085,191.026 h -5.471 v 35.178 1.559 l -0.028,1.559 -0.057,1.304 -0.057,1.304 -0.085,1.105 -0.113,1.134 -0.142,0.964 -0.056,0.425 -0.085,0.425 -0.085,0.454 -0.086,0.34 -0.113,0.34 -0.085,0.341 -0.142,0.255 -0.113,0.283 -0.113,0.255 -0.142,0.255 -0.142,0.17 -0.113,0.17 -0.17,0.086 -0.142,0.17 -0.142,0.085 h -0.17 l -0.17,0.085 h -0.17 -0.284 l -0.255,-0.085 -0.226,-0.085 -0.227,-0.17 -0.227,-0.171 -0.198,-0.17 -0.199,-0.255 -0.17,-0.34 -0.17,-0.368 -0.198,-0.341 -0.142,-0.425 -0.17,-0.51 -0.114,-0.454 -0.141,-0.595 -0.114,-0.51 -0.113,-0.624 -0.085,-0.68 -0.085,-0.709 -0.085,-0.68 -0.085,-0.794 -0.085,-0.765 -0.057,-0.879 -0.057,-0.85 -0.056,-0.879 -0.085,-1.899 -0.057,-2.069 -0.028,-2.268 v -2.325 -28.346 h -5.443 v 60.293 h 4.139 l 0.737,-7.71 h 0.311 l 0.114,0.623 0.142,0.511 0.113,0.51 0.142,0.538 0.113,0.426 0.142,0.51 0.141,0.453 0.142,0.426 0.142,0.425 0.17,0.34 0.17,0.368 0.142,0.341 0.368,0.68 0.369,0.623 0.368,0.511 0.369,0.34 0.397,0.425 0.425,0.284 0.397,0.255 0.425,0.085 0.425,0.17 h 0.425 0.397 l 0.34,-0.085 0.341,-0.085 0.311,-0.17 0.34,-0.17 0.341,-0.199 0.283,-0.255 0.312,-0.34 0.283,-0.34 0.284,-0.34 0.283,-0.454 0.284,-0.425 0.255,-0.51 0.227,-0.624 0.226,-0.595 0.227,-0.596 0.199,-0.708 0.198,-0.766 0.17,-0.793 0.17,-0.851 0.199,-0.878 0.141,-0.964 0.142,-0.936 0.113,-1.049 0.114,-1.048 0.085,-1.106 0.085,-1.219 0.057,-1.219 0.056,-1.219 0.029,-1.389 0.028,-2.749 z"
       style="fill:#ffffff;stroke:#808080;stroke-width:1.50233;stroke-linecap:butt;stroke-linejoin:miter;stroke-miterlimit:3.8637;stroke-dasharray:none;stroke-opacity:1;fill-opacity:1"
       id="path475"
       transform="matrix(1.5871739,0,0,1.4664008,-85.601815,137.83746)"
       inkscape:label="W1Liter &quot;n1&quot;" />
    <path
       d="m 146.92,257.13 h -0.397 l -0.369,-0.085 -0.368,-0.17 -0.369,-0.17 -0.34,-0.255 -0.34,-0.369 -0.312,-0.34 -0.312,-0.425 -0.34,-0.539 -0.283,-0.51 -0.255,-0.595 -0.284,-0.624 -0.227,-0.68 -0.255,-0.794 -0.198,-0.765 -0.227,-0.879 -0.227,-0.85 -0.198,-0.964 -0.17,-1.049 -0.17,-1.021 -0.142,-1.048 -0.142,-1.134 -0.113,-1.191 -0.113,-1.219 -0.114,-1.304 -0.085,-1.304 -0.057,-1.303 -0.056,-1.389 -0.085,-2.835 -0.029,-3.033 0.029,-3.118 0.085,-2.863 0.113,-2.693 0.085,-1.304 0.085,-1.219 0.114,-1.191 0.113,-1.133 0.113,-1.134 0.142,-1.049 0.142,-1.021 0.17,-0.963 0.17,-0.936 0.198,-0.879 0.227,-0.793 0.227,-0.766 0.227,-0.793 0.255,-0.596 0.255,-0.595 0.255,-0.623 0.283,-0.511 0.341,-0.425 0.311,-0.453 0.341,-0.341 0.34,-0.255 0.34,-0.255 0.397,-0.17 0.397,-0.17 0.396,-0.085 h 0.426 l 0.822,0.085 0.793,0.17 0.766,0.34 0.822,0.425 0.794,0.624 0.878,0.68 0.879,0.879 0.935,0.936 v -14.032 l -0.425,-0.51 -0.453,-0.51 -0.425,-0.454 -0.397,-0.34 -0.426,-0.34 -0.453,-0.34 -0.425,-0.369 -0.425,-0.255 -0.426,-0.255 -0.482,-0.17 -0.907,-0.255 -0.453,-0.085 -0.51,-0.085 -0.482,-0.085 h -0.511 l -0.737,0.085 -0.737,0.085 -0.68,0.255 -0.68,0.255 -0.652,0.425 -0.595,0.539 -0.624,0.595 -0.567,0.68 -0.539,0.794 -0.538,0.765 -0.482,0.964 -0.454,0.964 -0.425,1.02 -0.453,1.134 -0.397,1.219 -0.369,1.304 -0.34,1.389 -0.34,1.389 -0.283,1.446 -0.312,1.559 -0.255,1.672 -0.227,1.729 -0.227,1.729 -0.17,1.815 -0.17,1.899 -0.113,1.899 -0.142,2.013 -0.085,2.069 -0.085,2.069 -0.029,2.183 -0.056,4.422 v 2.239 l 0.056,2.183 0.057,2.069 0.085,2.07 0.113,2.097 0.142,1.984 0.142,1.9 0.198,1.899 0.227,1.814 0.227,1.757 0.255,1.73 0.283,1.644 0.312,1.559 0.34,1.474 0.341,1.474 0.368,1.389 0.397,1.275 0.454,1.219 0.425,1.219 0.482,1.049 0.481,1.02 0.539,0.964 0.539,0.879 0.538,0.765 0.596,0.681 0.595,0.623 0.623,0.511 0.681,0.425 0.652,0.368 0.68,0.255 0.737,0.085 0.709,0.085 h 0.482 l 0.51,-0.085 0.482,-0.17 0.482,-0.17 0.51,-0.17 0.482,-0.283 0.963,-0.681 0.993,-0.793 0.935,-0.936 0.935,-1.134 0.879,-1.219 -1.786,-13.492 -0.737,1.02 -0.708,0.879 -0.766,0.935 -0.737,0.794 -0.368,0.34 -0.397,0.34 -0.34,0.284 -0.369,0.255 -0.368,0.085 -0.34,0.17 -0.397,0.085 z"
       style="fill:#ffffff;stroke:#808080;stroke-width:1.50233;stroke-linecap:butt;stroke-linejoin:miter;stroke-miterlimit:3.8637;stroke-dasharray:none;stroke-opacity:1;fill-opacity:1"
       id="path463"
       transform="matrix(1.5871739,0,0,1.4664008,-85.601815,137.83746)"
       inkscape:label="W1Liter &quot;C1&quot;" />
  </g>
</svg>
