<!DOCTYPE svg PUBLIC "-//W3C//DTD SVG 1.1//EN" "http://www.w3.org/Graphics/SVG/1.1/DTD/svg11.dtd">
<!-- Uploaded to: SVG Repo, www.svgrepo.com, Transformed by: SVG Repo Mixer Tools -->
<svg fill="#877eff" height="800px" width="800px" version="1.1" id="Layer_1" xmlns="http://www.w3.org/2000/svg" xmlns:xlink="http://www.w3.org/1999/xlink" viewBox="0 0 512.00 512.00" xml:space="preserve" stroke="#877eff" stroke-width="2.560005">
<g id="SVGRepo_bgCarrier" stroke-width="0"/>
<g id="SVGRepo_tracerCarrier" stroke-linecap="round" stroke-linejoin="round"/>
<g id="SVGRepo_iconCarrier"> <g> <g> <path d="M503.984,290.765c-4.428,0-8.017,3.588-8.017,8.017v85.513c0,14.441-11.747,26.188-26.188,26.188h-42.756 c-4.428,0-8.017,3.588-8.017,8.017v58.96l-72.131-64.918c-1.473-1.325-3.383-2.059-5.364-2.059H187.592 c-14.44,0-26.188-11.747-26.188-26.188v-10.83c8.676,1.15,17.436,1.744,26.188,1.744c103.438,0,187.591-80.318,187.591-179.04 c0-18.398-2.92-36.787-8.747-54.242c-1.663-4.981-3.555-9.894-5.665-14.702h109.008c14.441,0,26.188,11.747,26.188,26.188v102.613 c0,4.43,3.588,8.018,8.017,8.018c4.428,0,8.017-3.588,8.017-8.017V153.414c0-23.281-18.941-42.221-42.221-42.221H352.717 c-15.429-27.264-38.017-50.303-65.61-66.817c-29.783-17.825-64.195-27.246-99.516-27.246c-55.02,0-107.068,22.935-142.797,62.924 c-2.95,3.302-2.665,8.369,0.637,11.32c3.301,2.95,8.369,2.665,11.32-0.637c32.691-36.588,80.381-57.573,130.841-57.573 c60.457,0,115.358,29.576,146.436,78.029H187.591c-23.281,0-42.221,18.941-42.221,42.221V354.19 c-12.417-2.987-24.452-7.298-35.889-12.865c-2.233-1.088-4.844-1.08-7.069,0.025l-67.699,33.556l29.427-57.721 c1.572-3.084,0.988-6.828-1.448-9.285c-30.088-30.346-46.657-70.025-46.657-111.728c0-24.262,5.474-47.603,16.268-69.375 c1.967-3.967,0.345-8.777-3.621-10.743c-3.967-1.966-8.776-0.344-10.743,3.622C6.035,143.679,0,169.415,0,196.17 c0,44.052,16.742,86.02,47.264,118.812L9.425,389.204c-1.475,2.893-1.027,6.481,1.114,8.923c2.37,2.703,6.364,3.501,9.589,1.901 l85.923-42.589c12.561,5.793,25.746,10.211,39.319,13.191v13.664c0,23.281,18.941,42.221,42.221,42.221h150.844l83.224,74.902 c5.066,4.559,13.38,0.821,13.38-5.958v-68.944h34.739c23.28,0,42.221-18.941,42.221-42.221v-85.513 C512.001,294.353,508.413,290.765,503.984,290.765z M161.403,153.414c0-14.441,11.748-26.188,26.188-26.188h155.493 c8.038,16.775,13.374,34.531,15.257,53.07c0.536,5.272,0.807,10.575,0.807,15.874c0,89.882-76.96,163.006-171.557,163.006 c-8.759,0-17.521-0.651-26.188-1.91V153.414z"/> </g> </g> <g> <g> <path d="M256,145.397c-37.426,0-67.875,30.448-67.875,67.875c0,25.178,13.791,47.181,34.205,58.897v0.961v23.516 c0,15.03,12.227,27.257,27.257,27.257h12.827c15.03,0,27.257-12.227,27.257-27.257V273.13v-0.961 c20.414-11.716,34.205-33.719,34.205-58.897C323.875,175.846,293.426,145.397,256,145.397z M273.637,296.646 c0,6.189-5.035,11.223-11.223,11.223h-12.827c-6.189,0-11.223-5.034-11.223-11.223v-15.499h35.273V296.646z M273.637,262.02 c-11.314,4.107-23.959,4.107-35.273,0V219.7l13.19,8.794c2.694,1.796,6.201,1.796,8.893,0l13.19-8.794V262.02z M289.67,252.643 v-47.922c0-6.27-7.229-10.162-12.463-6.67L256,212.189l-21.207-14.138c-5.231-3.491-12.463,0.396-12.463,6.67v47.922 c-11.11-9.515-18.171-23.629-18.171-39.371c0-28.585,23.256-51.841,51.841-51.841s51.841,23.256,51.841,51.841 C307.841,229.014,300.78,243.127,289.67,252.643z"/> </g> </g> <g> <g> <path d="M398.488,28.03c-3.132-3.13-8.207-3.13-11.338,0l-17.102,17.102c-3.131,3.132-3.131,8.207,0,11.338 c1.565,1.565,3.617,2.347,5.668,2.347s4.104-0.782,5.669-2.347l17.102-17.102C401.619,36.236,401.619,31.16,398.488,28.03z"/> </g> </g> <g> <g> <path d="M409.921,76.988h-25.653c-4.428,0-8.017,3.588-8.017,8.017c0,4.428,3.588,8.017,8.017,8.017h25.653 c4.428,0,8.017-3.588,8.017-8.017C417.937,80.576,414.349,76.988,409.921,76.988z"/> </g> </g> <g> <g> <path d="M341.511,8.579c-4.428,0-8.017,3.588-8.017,8.017v25.653c0,4.428,3.588,8.017,8.017,8.017 c4.428,0,8.017-3.588,8.017-8.017V16.596C349.528,12.167,345.94,8.579,341.511,8.579z"/> </g> </g> </g>
</svg>