<svg width="77" height="71" viewBox="0 0 77 71" fill="none" xmlns="http://www.w3.org/2000/svg">
<g clip-path="url(#clip0_4_2)">
<path d="M44.12 71C43.97 70.95 43.82 70.9 43.67 70.85C42.33 70.5 40.97 70.22 39.74 69.54C37.97 68.55 36.3 67.41 34.94 65.88C34.87 65.81 34.84 65.71 34.75 65.55C34.55 65.83 34.42 66 34.31 66.17C33.61 67.28 32.91 68.39 32.22 69.51C32.04 69.8 31.85 70.02 31.47 70.01C30.17 69.99 28.86 69.97 27.46 69.96C27.6 69.71 27.67 69.57 27.75 69.43C29.1 67.21 30.45 64.99 31.83 62.79C32.13 62.32 32.07 61.97 31.79 61.52C27.26 54.3 22.75 47.07 18.23 39.84C15.85 36.04 13.49 32.23 11.09 28.44C10.73 27.88 10.67 27.44 10.97 26.83C11.71 25.31 12.35 23.74 13.04 22.2C13.35 21.51 13.72 20.85 14.03 20.16C14.5 19.13 14.94 18.09 15.41 17.06C15.66 16.5 15.96 15.96 16.22 15.41C16.45 14.93 16.67 14.44 16.88 13.98C14.92 10.58 12.96 7.2 11 3.79C10.7 3.79 10.38 3.79 9.97001 3.79C9.97001 24.63 9.97001 45.45 9.97001 66.3C6.60001 66.3 3.32001 66.3 -0.00999451 66.3C-0.00999451 44.48 -0.00999451 22.7 -0.00999451 0.860002C0.290006 0.850002 0.550005 0.820002 0.810005 0.820002C6.30001 0.810002 11.78 0.800002 17.26 0.800002C18.82 0.800002 20.38 0.810001 21.94 0.780001C22.39 0.770001 22.66 0.920002 22.9 1.3C23.59 2.39 24.33 3.45 25.03 4.52C25.26 4.87 25.47 5.23 25.65 5.6C25.8 5.91 25.99 5.92 26.24 5.74C26.32 5.68 26.4 5.62 26.48 5.56C28.75 3.89 31.23 2.62 33.9 1.72C34.59 1.49 35.32 1.34 36.04 1.23C37.11 1.07 38.19 0.960002 39.27 0.880002C40.45 0.790002 41.61 1.02 42.77 1.18C43.89 1.33 44.93 1.71 46 2.02C46.37 2.13 46.78 2.16 47.16 2.17C48.57 2.19 49.99 2.25 51.39 2.16C52.49 2.08 53.61 1.93 54.63 1.4C54.73 1.35 54.86 1.35 55.08 1.31C54.99 1.54 54.96 1.69 54.88 1.82C53.46 4.12 51.66 6.02 49.14 7.12C47.93 7.65 46.67 8.07 45.33 8.07C43.87 8.06 42.41 8.02 40.96 7.91C40.29 7.86 39.64 7.62 38.98 7.46C38.41 7.32 37.84 7.19 37.28 7.04C36.32 6.79 35.36 6.52 34.4 6.27C33.28 5.98 32.25 6.31 31.26 6.76C29.8 7.42 28.46 8.29 27.14 9.34C32.26 17.21 37.37 25.07 42.52 33.01C42.75 32.7 42.92 32.49 43.06 32.26C47.37 25.2 51.68 18.13 55.99 11.07C58.05 7.69 60.12 4.32 62.17 0.940001C62.4 0.550002 62.66 0.400002 63.11 0.400002C66.85 0.440002 70.6 0.450002 74.34 0.470002C74.46 0.470002 74.58 0.490002 74.75 0.500002C74.75 22.45 74.75 44.37 74.75 66.33C71.28 66.33 67.84 66.33 64.32 66.33C64.24 56.31 64.16 46.3 64.25 36.23C60.33 36.23 56.43 36.23 52.55 36.23C48.61 42.72 44.67 49.22 40.73 55.72C40.74 55.77 40.73 55.82 40.76 55.86C42.77 59.18 45.07 62.28 47.88 64.97C49.23 66.26 50.74 67.34 52.42 68.16C52.84 68.37 53.31 68.49 53.85 68.69C52.54 69.44 51.27 70.03 49.9 70.4C49.16 70.6 48.43 70.8 47.69 71C47.54 71 47.39 71 47.24 71C46.35 71 45.45 71 44.56 71C44.42 71 44.27 71 44.12 71ZM64.29 4.94C55.62 18.9 47.07 32.92 38.46 47.01C37.75 45.91 37.13 44.94 36.5 43.96C35.86 42.96 35.21 41.96 34.57 40.96C33.94 39.98 33.32 39 32.67 38.03C32.03 37.07 31.37 36.13 30.73 35.17C30.1 34.21 29.49 33.24 28.88 32.27C28.25 31.27 27.65 30.26 27.02 29.27C26.4 28.29 25.76 27.31 25.13 26.33C24.5 25.35 23.87 24.37 23.23 23.4C22.58 22.4 21.94 21.4 21.29 20.41C20.66 19.45 20.07 18.46 19.33 17.51C19.17 17.65 19.06 17.72 18.99 17.81C17.9 19.33 16.94 20.93 16.29 22.69C15.94 23.63 15.64 24.59 15.45 25.57C15.34 26.15 15.34 26.78 15.45 27.41C15.78 27.41 16.02 27.41 16.27 27.41C18.25 27.41 20.24 27.43 22.22 27.4C22.71 27.39 22.97 27.56 23.23 27.96C24.99 30.77 26.77 33.57 28.55 36.37C31.83 41.55 35.12 46.72 38.43 51.95C38.65 51.61 38.85 51.3 39.04 50.98C43.55 43.4 48.07 35.83 52.57 28.24C52.85 27.77 53.13 27.54 53.73 27.55C57.07 27.61 60.42 27.62 63.77 27.64C63.94 27.64 64.1 27.61 64.29 27.59C64.29 20.02 64.29 12.48 64.29 4.94Z" fill="url(#paint0_linear_4_2)"/>
</g>
<defs>
<linearGradient id="paint0_linear_4_2" x1="37.37" y1="0.400002" x2="37.37" y2="71" gradientUnits="userSpaceOnUse">
<stop stop-color="#290D21"/>
<stop offset="0.0001" stop-color="#632050"/>
<stop offset="0.4625" stop-color="#262175"/>
<stop offset="0.983333" stop-color="#1D195D"/>
</linearGradient>
<clipPath id="clip0_4_2">
<rect width="77" height="71" fill="white"/>
</clipPath>
</defs>
</svg>
